<svg width="45" height="45" viewBox="0 0 45 45" fill="none" xmlns="http://www.w3.org/2000/svg">
<circle cx="22.5" cy="22.5" r="22.5" transform="rotate(-90 22.5 22.5)" fill="#E0E0E0" style="fill:#E0E0E0;fill:color(display-p3 0.8784 0.8784 0.8784);fill-opacity:1;"/>
<path fill-rule="evenodd" clip-rule="evenodd" d="M22.6568 28.5733C22.9809 28.9311 23.5393 28.9633 23.9039 28.6453L30.2182 23.1371C30.4068 22.9726 30.5147 22.7369 30.5147 22.4892C30.5147 22.2416 30.4068 22.0059 30.2182 21.8414L23.9039 16.3332C23.5393 16.0152 22.9809 16.0474 22.6568 16.4052C22.3327 16.763 22.3656 17.3109 22.7302 17.629L27.3081 21.6224L14.898 21.6224C14.4101 21.6224 14.0147 22.0105 14.0147 22.4893C14.0147 22.968 14.4101 23.3561 14.898 23.3561L27.3081 23.3561L22.7302 27.3495C22.3656 27.6676 22.3327 28.2155 22.6568 28.5733Z" fill="#201F29" style="fill:#201F29;fill:color(display-p3 0.1255 0.1216 0.1608);fill-opacity:1;"/>
</svg>
