<svg width="42" height="43" viewBox="0 0 42 43" fill="none" xmlns="http://www.w3.org/2000/svg">
<circle cx="20.8171" cy="21.6414" r="20.7742" fill="white" style="fill:white;fill-opacity:1;"/>
<path d="M17.0799 27.4458C15.8449 27.4458 14.8438 28.447 14.8438 29.682C14.8438 30.917 15.8449 31.9182 17.0799 31.9182C18.315 31.9182 19.3161 30.917 19.3161 29.682C19.3161 28.447 18.315 27.4458 17.0799 27.4458ZM17.0799 30.9243C16.3938 30.9243 15.8376 30.3681 15.8376 29.682C15.8376 28.9959 16.3938 28.4397 17.0799 28.4397C17.766 28.4397 18.3222 28.9959 18.3222 29.682C18.3223 30.3681 17.766 30.9243 17.0799 30.9243Z" fill="black" stroke="black" style="fill:black;fill-opacity:1;stroke:black;stroke-opacity:1;" stroke-width="0.5"/>
<path d="M26.5218 27.4458C25.2868 27.4458 24.2856 28.447 24.2856 29.682C24.2856 30.917 25.2868 31.9182 26.5218 31.9182C27.7568 31.9182 28.758 30.917 28.758 29.682C28.758 28.447 27.7569 27.4458 26.5218 27.4458ZM26.5218 30.9243C25.8357 30.9243 25.2795 30.3681 25.2795 29.682C25.2795 28.9959 25.8357 28.4397 26.5218 28.4397C27.2079 28.4397 27.7641 28.9959 27.7641 29.682C27.7642 30.3681 27.2079 30.9243 26.5218 30.9243Z" fill="black" stroke="black" style="fill:black;fill-opacity:1;stroke:black;stroke-opacity:1;" stroke-width="0.5"/>
<path d="M31.5659 14.4018C31.4625 14.2887 31.3209 14.2179 31.1684 14.203L14.9933 13.9793L14.546 12.6128C14.231 11.6992 13.3755 11.0825 12.4092 11.0723H10.7445C10.47 11.0723 10.2476 11.2947 10.2476 11.5692C10.2476 11.8437 10.47 12.0661 10.7445 12.0661H12.4092C12.9495 12.0781 13.4253 12.425 13.6019 12.9358L16.7574 22.452L16.5089 23.0235C16.2318 23.7381 16.3151 24.5424 16.7326 25.1851C17.1461 25.8164 17.8418 26.206 18.5961 26.2287H28.2614C28.5359 26.2287 28.7584 26.0062 28.7584 25.7318C28.7584 25.4573 28.5359 25.2348 28.2614 25.2348H18.596C18.1701 25.2242 17.7779 25.0001 17.5525 24.6385C17.3295 24.2814 17.2837 23.8413 17.4282 23.4459L17.627 22.9986L28.0875 21.9054C29.2365 21.7788 30.1816 20.9431 30.4479 19.8182L31.6406 14.8241C31.6943 14.6803 31.6658 14.5185 31.5659 14.4018ZM29.4789 19.5947C29.3175 20.3188 28.7028 20.8529 27.9632 20.9115L17.627 21.9799L15.3163 14.9732L30.5473 15.1968L29.4789 19.5947Z" fill="black" stroke="black" style="fill:black;fill-opacity:1;stroke:black;stroke-opacity:1;" stroke-width="0.5"/>
</svg>
