<svg width="60" height="60" viewBox="0 0 60 60" fill="none" xmlns="http://www.w3.org/2000/svg">
<circle cx="30" cy="30" r="30" fill="#E0E0E0" style="fill:#E0E0E0;fill:color(display-p3 0.8784 0.8784 0.8784);fill-opacity:1;"/>
<path fill-rule="evenodd" clip-rule="evenodd" d="M30.3115 37.8796C30.7436 38.3567 31.4881 38.3997 31.9742 37.9756L40.3933 30.6314C40.6447 30.4121 40.7886 30.0977 40.7886 29.7676C40.7886 29.4374 40.6447 29.1231 40.3933 28.9037L31.9742 21.5595C31.4881 21.1354 30.7437 21.1784 30.3115 21.6555C29.8794 22.1326 29.9232 22.8632 30.4093 23.2872L36.5131 28.6118H19.9663C19.3159 28.6118 18.7886 29.1292 18.7886 29.7676C18.7886 30.4059 19.3159 30.9234 19.9663 30.9234H36.5131L30.4093 36.2479C29.9232 36.672 29.8794 37.4025 30.3115 37.8796Z" fill="#201F29" style="fill:#201F29;fill:color(display-p3 0.1255 0.1216 0.1608);fill-opacity:1;"/>
</svg>
