<svg width="62" height="62" viewBox="0 0 62 62" fill="none" xmlns="http://www.w3.org/2000/svg">
<path d="M61 31C61 47.5685 47.5685 61 31 61C14.4315 61 1 47.5685 1 31C1 14.4315 14.4315 1 31 1C47.5685 1 61 14.4315 61 31Z" fill="#E0E0E0" style="fill:#E0E0E0;fill:color(display-p3 0.8784 0.8784 0.8784);fill-opacity:1;"/>
<path d="M25.3738 39.4631C23.6795 39.4631 22.306 40.8366 22.306 42.5309C22.306 44.2252 23.6795 45.5987 25.3738 45.5987C27.0682 45.5987 28.4416 44.2252 28.4416 42.5309C28.4417 40.8366 27.0682 39.4631 25.3738 39.4631ZM25.3738 44.2353C24.4325 44.2353 23.6695 43.4722 23.6695 42.531C23.6695 41.5897 24.4325 40.8266 25.3738 40.8266C26.3151 40.8266 27.0781 41.5897 27.0781 42.531C27.0782 43.4722 26.3151 44.2353 25.3738 44.2353Z" fill="black" style="fill:black;fill-opacity:1;"/>
<path d="M38.3269 39.4631C36.6326 39.4631 35.2591 40.8366 35.2591 42.5309C35.2591 44.2252 36.6326 45.5987 38.3269 45.5987C40.0212 45.5987 41.3947 44.2252 41.3947 42.5309C41.3947 40.8366 40.0212 39.4631 38.3269 39.4631ZM38.3269 44.2353C37.3856 44.2353 36.6226 43.4722 36.6226 42.531C36.6226 41.5897 37.3856 40.8266 38.3269 40.8266C39.2682 40.8266 40.0312 41.5897 40.0312 42.531C40.0313 43.4722 39.2682 44.2353 38.3269 44.2353Z" fill="black" style="fill:black;fill-opacity:1;"/>
<path d="M45.2466 21.5677C45.1046 21.4126 44.9104 21.3155 44.7012 21.295L22.5106 20.9882L21.8971 19.1134C21.4648 17.8601 20.2912 17.014 18.9656 17H16.6817C16.3052 17 16 17.3052 16 17.6817C16 18.0583 16.3052 18.3635 16.6817 18.3635H18.9656C19.7068 18.3799 20.3595 18.8558 20.6018 19.5565L24.9308 32.6119L24.59 33.3958C24.2098 34.3762 24.324 35.4796 24.8968 36.3614C25.4641 37.2275 26.4185 37.7619 27.4533 37.7931H40.7132C41.0897 37.7931 41.3949 37.4879 41.3949 37.1113C41.3949 36.7348 41.0897 36.4296 40.7132 36.4296H27.4532C26.8688 36.415 26.3309 36.1075 26.0216 35.6115C25.7157 35.1215 25.6529 34.5179 25.8512 33.9753L26.1239 33.3617L40.4745 31.8619C42.0508 31.6883 43.3475 30.5418 43.7128 28.9986L45.349 22.1471C45.4227 21.9498 45.3836 21.7279 45.2466 21.5677ZM42.3834 28.6918C42.1621 29.6853 41.3186 30.418 40.3041 30.4985L26.1239 31.9642L22.9538 22.3517L43.8491 22.6585L42.3834 28.6918Z" fill="black" style="fill:black;fill-opacity:1;"/>
<path d="M61 31C61 47.5685 47.5685 61 31 61C14.4315 61 1 47.5685 1 31C1 14.4315 14.4315 1 31 1C47.5685 1 61 14.4315 61 31Z" stroke="black" style="stroke:black;stroke-opacity:1;" stroke-width="0.5"/>
<path d="M25.3738 39.4631C23.6795 39.4631 22.306 40.8366 22.306 42.5309C22.306 44.2252 23.6795 45.5987 25.3738 45.5987C27.0682 45.5987 28.4416 44.2252 28.4416 42.5309C28.4417 40.8366 27.0682 39.4631 25.3738 39.4631ZM25.3738 44.2353C24.4325 44.2353 23.6695 43.4722 23.6695 42.531C23.6695 41.5897 24.4325 40.8266 25.3738 40.8266C26.3151 40.8266 27.0781 41.5897 27.0781 42.531C27.0782 43.4722 26.3151 44.2353 25.3738 44.2353Z" stroke="black" style="stroke:black;stroke-opacity:1;" stroke-width="0.5"/>
<path d="M38.3269 39.4631C36.6326 39.4631 35.2591 40.8366 35.2591 42.5309C35.2591 44.2252 36.6326 45.5987 38.3269 45.5987C40.0212 45.5987 41.3947 44.2252 41.3947 42.5309C41.3947 40.8366 40.0212 39.4631 38.3269 39.4631ZM38.3269 44.2353C37.3856 44.2353 36.6226 43.4722 36.6226 42.531C36.6226 41.5897 37.3856 40.8266 38.3269 40.8266C39.2682 40.8266 40.0312 41.5897 40.0312 42.531C40.0313 43.4722 39.2682 44.2353 38.3269 44.2353Z" stroke="black" style="stroke:black;stroke-opacity:1;" stroke-width="0.5"/>
<path d="M45.2466 21.5677C45.1046 21.4126 44.9104 21.3155 44.7012 21.295L22.5106 20.9882L21.8971 19.1134C21.4648 17.8601 20.2912 17.014 18.9656 17H16.6817C16.3052 17 16 17.3052 16 17.6817C16 18.0583 16.3052 18.3635 16.6817 18.3635H18.9656C19.7068 18.3799 20.3595 18.8558 20.6018 19.5565L24.9308 32.6119L24.59 33.3958C24.2098 34.3762 24.324 35.4796 24.8968 36.3614C25.4641 37.2275 26.4185 37.7619 27.4533 37.7931H40.7132C41.0897 37.7931 41.3949 37.4879 41.3949 37.1113C41.3949 36.7348 41.0897 36.4296 40.7132 36.4296H27.4532C26.8688 36.415 26.3309 36.1075 26.0216 35.6115C25.7157 35.1215 25.6529 34.5179 25.8512 33.9753L26.1239 33.3617L40.4745 31.8619C42.0508 31.6883 43.3475 30.5418 43.7128 28.9986L45.349 22.1471C45.4227 21.9498 45.3836 21.7279 45.2466 21.5677ZM42.3834 28.6918C42.1621 29.6853 41.3186 30.418 40.3041 30.4985L26.1239 31.9642L22.9538 22.3517L43.8491 22.6585L42.3834 28.6918Z" stroke="black" style="stroke:black;stroke-opacity:1;" stroke-width="0.5"/>
</svg>
