<svg width="1678" height="955" viewBox="0 0 1678 955" fill="none" xmlns="http://www.w3.org/2000/svg">
<path d="M1408.9 842.218H1663C1666.98 842.218 1670.79 840.392 1673.61 837.14C1676.42 833.888 1678 829.477 1678 824.878V17.3403C1678 12.7414 1676.42 8.33085 1673.61 5.07891C1670.79 1.82696 1666.98 0 1663 0H15C11.0218 0 7.20645 1.82696 4.3934 5.07891C1.58036 8.33085 0 12.7414 0 17.3403V937.66C0 942.259 1.58036 946.669 4.3934 949.921C7.20645 953.173 11.0218 955 15 955H1378.9C1382.88 955 1386.69 953.173 1389.51 949.921C1392.32 946.669 1393.9 942.259 1393.9 937.66V859.559C1393.9 854.96 1395.48 850.549 1398.29 847.297C1401.11 844.046 1404.92 842.218 1408.9 842.218Z" fill="white" style="fill:white;fill-opacity:1;"/>
<mask id="mask0_328_2750" style="mask-type:alpha" maskUnits="userSpaceOnUse" x="0" y="0" width="1678" height="955">
<path d="M1408.9 842.218H1663C1666.98 842.218 1670.79 840.392 1673.61 837.14C1676.42 833.888 1678 829.477 1678 824.878V17.3403C1678 12.7414 1676.42 8.33085 1673.61 5.07891C1670.79 1.82696 1666.98 0 1663 0H15C11.0218 0 7.20645 1.82696 4.3934 5.07891C1.58036 8.33085 0 12.7414 0 17.3403V937.66C0 942.259 1.58036 946.669 4.3934 949.921C7.20645 953.173 11.0218 955 15 955H1378.9C1382.88 955 1386.69 953.173 1389.51 949.921C1392.32 946.669 1393.9 942.259 1393.9 937.66V859.559C1393.9 854.96 1395.48 850.549 1398.29 847.297C1401.11 844.046 1404.92 842.218 1408.9 842.218Z" fill="white" style="fill:white;fill-opacity:1;"/>
</mask>
<g mask="url(#mask0_328_2750)">
<path d="M0 15C0 6.71575 6.71573 0 15 0H1678V1105.16H0V15Z" fill="#1C1C1C" style="fill:#1C1C1C;fill:color(display-p3 0.1083 0.1083 0.1083);fill-opacity:1;"/>
<g opacity="0.9" filter="url(#filter0_f_328_2750)">
<ellipse cx="837.551" cy="892.486" rx="501.551" ry="502.077" fill="#0058AB" style="fill:#0058AB;fill:color(display-p3 0.0000 0.3451 0.6706);fill-opacity:1;"/>
</g>
</g>
<defs>
<filter id="filter0_f_328_2750" x="36" y="90.4087" width="1603.1" height="1604.15" filterUnits="userSpaceOnUse" color-interpolation-filters="sRGB">
<feFlood flood-opacity="0" result="BackgroundImageFix"/>
<feBlend mode="normal" in="SourceGraphic" in2="BackgroundImageFix" result="shape"/>
<feGaussianBlur stdDeviation="150" result="effect1_foregroundBlur_328_2750"/>
</filter>
</defs>
</svg>
