<svg width="1678" height="954" viewBox="0 0 1678 954" fill="none" xmlns="http://www.w3.org/2000/svg">
<path d="M1408.9 841.337H1663C1666.98 841.337 1670.79 839.512 1673.61 836.263C1676.42 833.015 1678 828.608 1678 824.014V17.3222C1678 12.728 1676.42 8.32213 1673.61 5.07359C1670.79 1.82505 1666.98 0 1663 0H15C11.0218 0 7.20645 1.82505 4.3934 5.07359C1.58036 8.32213 0 12.728 0 17.3222V936.678C0 941.272 1.58036 945.678 4.3934 948.927C7.20645 952.175 11.0218 954 15 954H1378.9C1382.88 954 1386.69 952.175 1389.51 948.927C1392.32 945.678 1393.9 941.272 1393.9 936.678V858.659C1393.9 854.065 1395.48 849.659 1398.29 846.41C1401.11 843.162 1404.92 841.337 1408.9 841.337Z" fill="white" style="fill:white;fill-opacity:1;"/>
<mask id="mask0_328_2748" style="mask-type:alpha" maskUnits="userSpaceOnUse" x="0" y="0" width="1678" height="954">
<path d="M1408.9 841.337H1663C1666.98 841.337 1670.79 839.512 1673.61 836.263C1676.42 833.015 1678 828.608 1678 824.014V17.3222C1678 12.728 1676.42 8.32213 1673.61 5.07359C1670.79 1.82505 1666.98 0 1663 0H15C11.0218 0 7.20645 1.82505 4.3934 5.07359C1.58036 8.32213 0 12.728 0 17.3222V936.678C0 941.272 1.58036 945.678 4.3934 948.927C7.20645 952.175 11.0218 954 15 954H1378.9C1382.88 954 1386.69 952.175 1389.51 948.927C1392.32 945.678 1393.9 941.272 1393.9 936.678V858.659C1393.9 854.065 1395.48 849.659 1398.29 846.41C1401.11 843.162 1404.92 841.337 1408.9 841.337Z" fill="white" style="fill:white;fill-opacity:1;"/>
</mask>
<g mask="url(#mask0_328_2748)">
<path d="M0 15C0 6.71571 6.71573 0 15 0H1678V1104H0V15Z" fill="#1C1C1C" style="fill:#1C1C1C;fill:color(display-p3 0.1083 0.1083 0.1083);fill-opacity:1;"/>
<g opacity="0.9" filter="url(#filter0_f_328_2748)">
<circle cx="837.551" cy="891.551" r="501.551" fill="#7D7D7E" style="fill:#7D7D7E;fill:color(display-p3 0.4902 0.4902 0.4941);fill-opacity:1;"/>
</g>
</g>
<defs>
<filter id="filter0_f_328_2748" x="36" y="90" width="1603.1" height="1603.1" filterUnits="userSpaceOnUse" color-interpolation-filters="sRGB">
<feFlood flood-opacity="0" result="BackgroundImageFix"/>
<feBlend mode="normal" in="SourceGraphic" in2="BackgroundImageFix" result="shape"/>
<feGaussianBlur stdDeviation="150" result="effect1_foregroundBlur_328_2748"/>
</filter>
</defs>
</svg>
