<svg width="14" height="11" viewBox="0 0 14 11" fill="none" xmlns="http://www.w3.org/2000/svg">
<path fill-rule="evenodd" clip-rule="evenodd" d="M7.02739 10.1311C7.29093 10.422 7.74492 10.4483 8.04141 10.1896L13.1759 5.71068C13.3292 5.57692 13.417 5.38519 13.417 5.18385C13.417 4.98251 13.3292 4.79078 13.1759 4.65702L8.04142 0.17808C7.74494 -0.0805531 7.29094 -0.0543461 7.0274 0.236617C6.76386 0.527579 6.79056 0.973115 7.08705 1.23175L10.8095 4.47897L0.71827 4.47897C0.321585 4.47897 7.04668e-06 4.79456 6.55446e-06 5.18385C6.06223e-06 5.57315 0.321583 5.88873 0.718268 5.88873L10.8095 5.88873L7.08704 9.13595C6.79055 9.39459 6.76384 9.84012 7.02739 10.1311Z" fill="#201F29" style="fill:#201F29;fill:color(display-p3 0.1255 0.1216 0.1608);fill-opacity:1;"/>
</svg>
