<svg width="37" height="37" viewBox="0 0 37 37" fill="none" xmlns="http://www.w3.org/2000/svg">
<circle cx="18.5" cy="18.5" r="18.5" fill="white" style="fill:white;fill-opacity:1;"/>
<path d="M14.9898 23.4862C13.89 23.4862 12.9985 24.3778 12.9985 25.4776C12.9985 26.5775 13.89 27.469 14.9898 27.469C16.0897 27.469 16.9812 26.5774 16.9812 25.4776C16.9813 24.3778 16.0897 23.4862 14.9898 23.4862ZM14.9898 26.584C14.3788 26.584 13.8835 26.0887 13.8835 25.4777C13.8835 24.8667 14.3788 24.3713 14.9898 24.3713C15.6008 24.3713 16.0961 24.8667 16.0961 25.4777C16.0962 26.0887 15.6008 26.584 14.9898 26.584Z" fill="black" style="fill:black;fill-opacity:1;"/>
<path d="M23.3979 23.4862C22.2981 23.4862 21.4065 24.3778 21.4065 25.4776C21.4065 26.5775 22.2981 27.469 23.3979 27.469C24.4977 27.469 25.3893 26.5774 25.3893 25.4776C25.3893 24.3778 24.4977 23.4862 23.3979 23.4862ZM23.3979 26.584C22.7869 26.584 22.2916 26.0887 22.2916 25.4777C22.2916 24.8667 22.7869 24.3713 23.3979 24.3713C24.0089 24.3713 24.5042 24.8667 24.5042 25.4777C24.5043 26.0887 24.0089 26.584 23.3979 26.584Z" fill="black" style="fill:black;fill-opacity:1;"/>
<path d="M27.8899 11.8703C27.7978 11.7696 27.6717 11.7066 27.5359 11.6932L13.1315 11.4941L12.7332 10.2771C12.4526 9.4636 11.6908 8.91438 10.8303 8.90527H9.34781C9.1034 8.90527 8.90527 9.10339 8.90527 9.34781C8.90527 9.59222 9.1034 9.79034 9.34781 9.79034H10.8303C11.3114 9.80097 11.7351 10.1099 11.8924 10.5648L14.7025 19.0393L14.4812 19.5482C14.2344 20.1846 14.3086 20.9008 14.6804 21.4732C15.0486 22.0354 15.6681 22.3823 16.3399 22.4025H24.9472C25.1916 22.4025 25.3897 22.2044 25.3897 21.96C25.3897 21.7156 25.1916 21.5175 24.9472 21.5175H16.3398C15.9605 21.508 15.6113 21.3084 15.4105 20.9864C15.212 20.6684 15.1712 20.2765 15.2999 19.9243L15.4769 19.526L24.7922 18.5525C25.8154 18.4398 26.6571 17.6956 26.8943 16.6938L27.9564 12.2464C28.0042 12.1183 27.9788 11.9743 27.8899 11.8703ZM26.0313 16.4947C25.8877 17.1396 25.3402 17.6152 24.6816 17.6674L15.4769 18.6189L13.4191 12.3792L26.9827 12.5783L26.0313 16.4947Z" fill="black" style="fill:black;fill-opacity:1;"/>
<path d="M14.9898 23.4862C13.89 23.4862 12.9985 24.3778 12.9985 25.4776C12.9985 26.5775 13.89 27.469 14.9898 27.469C16.0897 27.469 16.9812 26.5774 16.9812 25.4776C16.9813 24.3778 16.0897 23.4862 14.9898 23.4862ZM14.9898 26.584C14.3788 26.584 13.8835 26.0887 13.8835 25.4777C13.8835 24.8667 14.3788 24.3713 14.9898 24.3713C15.6008 24.3713 16.0961 24.8667 16.0961 25.4777C16.0962 26.0887 15.6008 26.584 14.9898 26.584Z" stroke="black" style="stroke:black;stroke-opacity:1;" stroke-width="0.5"/>
<path d="M23.3979 23.4862C22.2981 23.4862 21.4065 24.3778 21.4065 25.4776C21.4065 26.5775 22.2981 27.469 23.3979 27.469C24.4977 27.469 25.3893 26.5774 25.3893 25.4776C25.3893 24.3778 24.4977 23.4862 23.3979 23.4862ZM23.3979 26.584C22.7869 26.584 22.2916 26.0887 22.2916 25.4777C22.2916 24.8667 22.7869 24.3713 23.3979 24.3713C24.0089 24.3713 24.5042 24.8667 24.5042 25.4777C24.5043 26.0887 24.0089 26.584 23.3979 26.584Z" stroke="black" style="stroke:black;stroke-opacity:1;" stroke-width="0.5"/>
<path d="M27.8899 11.8703C27.7978 11.7696 27.6717 11.7066 27.5359 11.6932L13.1315 11.4941L12.7332 10.2771C12.4526 9.4636 11.6908 8.91438 10.8303 8.90527H9.34781C9.1034 8.90527 8.90527 9.10339 8.90527 9.34781C8.90527 9.59222 9.1034 9.79034 9.34781 9.79034H10.8303C11.3114 9.80097 11.7351 10.1099 11.8924 10.5648L14.7025 19.0393L14.4812 19.5482C14.2344 20.1846 14.3086 20.9008 14.6804 21.4732C15.0486 22.0354 15.6681 22.3823 16.3399 22.4025H24.9472C25.1916 22.4025 25.3897 22.2044 25.3897 21.96C25.3897 21.7156 25.1916 21.5175 24.9472 21.5175H16.3398C15.9605 21.508 15.6113 21.3084 15.4105 20.9864C15.212 20.6684 15.1712 20.2765 15.2999 19.9243L15.4769 19.526L24.7922 18.5525C25.8154 18.4398 26.6571 17.6956 26.8943 16.6938L27.9564 12.2464C28.0042 12.1183 27.9788 11.9743 27.8899 11.8703ZM26.0313 16.4947C25.8877 17.1396 25.3402 17.6152 24.6816 17.6674L15.4769 18.6189L13.4191 12.3792L26.9827 12.5783L26.0313 16.4947Z" stroke="black" style="stroke:black;stroke-opacity:1;" stroke-width="0.5"/>
</svg>
