<svg width="38" height="37" viewBox="0 0 38 37" fill="none" xmlns="http://www.w3.org/2000/svg">
<circle cx="18.6318" cy="18.5" r="18.5" fill="white" style="fill:white;fill-opacity:1;"/>
<path d="M23.4982 21.4845C22.5178 21.4845 21.6345 21.8714 21.0214 22.487L15.507 19.3657C15.6542 19.0213 15.7358 18.6472 15.7358 18.2558C15.7358 17.8643 15.6542 17.4902 15.507 17.1459L21.0214 14.0246C21.6345 14.6401 22.5178 15.0272 23.4982 15.0272C25.3452 15.0272 26.8477 13.654 26.8477 11.9661C26.8477 10.2783 25.3452 8.90527 23.4982 8.90527C21.6513 8.90527 20.1488 10.2784 20.1488 11.9663C20.1488 12.3577 20.2306 12.7318 20.3777 13.0762L14.8634 16.1974C14.2503 15.5819 13.367 15.1948 12.3866 15.1948C10.5396 15.1948 9.03711 16.5681 9.03711 18.2558C9.03711 19.9437 10.5396 21.3168 12.3866 21.3168C13.367 21.3168 14.2503 20.9299 14.8634 20.3142L20.3777 23.4355C20.2306 23.7799 20.1488 24.154 20.1488 24.5455C20.1488 26.2333 21.6513 27.6064 23.4982 27.6064C25.3452 27.6064 26.8477 26.2333 26.8477 24.5455C26.8477 22.8576 25.3452 21.4845 23.4982 21.4845ZM21.3701 11.9663C21.3701 10.8939 22.3248 10.0214 23.4982 10.0214C24.6717 10.0214 25.6264 10.8939 25.6264 11.9663C25.6264 13.0387 24.6717 13.9111 23.4982 13.9111C22.3248 13.9111 21.3701 13.0387 21.3701 11.9663ZM12.3866 20.2007C11.213 20.2007 10.2583 19.3282 10.2583 18.2558C10.2583 17.1835 11.213 16.311 12.3866 16.311C13.56 16.311 14.5145 17.1835 14.5145 18.2558C14.5145 19.3282 13.56 20.2007 12.3866 20.2007ZM21.3701 24.5454C21.3701 23.473 22.3248 22.6005 23.4982 22.6005C24.6717 22.6005 25.6264 23.473 25.6264 24.5454C25.6264 25.6177 24.6717 26.4902 23.4982 26.4902C22.3248 26.4902 21.3701 25.6177 21.3701 24.5454Z" fill="black" style="fill:black;fill-opacity:1;"/>
</svg>
