<svg width="211" height="78" viewBox="0 0 211 78" fill="none" xmlns="http://www.w3.org/2000/svg">
<path d="M47.4542 77.0296H36.8782L0.00012207 40.0469H10.5762L47.4542 77.0296Z" fill="white" style="fill:white;fill-opacity:1;"/>
<path d="M47.4541 0H36.8781L0 36.9917H10.5761L47.4541 0Z" fill="white" style="fill:white;fill-opacity:1;"/>
<path d="M13.365 38.5199L36.3793 61.5995L56.7785 41.1424C57.5581 40.3561 57.9457 39.3419 57.9457 38.3144C57.9457 37.2869 57.5581 36.2727 56.7785 35.4864C55.9944 34.7046 54.9831 34.3159 53.9585 34.3159C52.9339 34.3159 51.9226 34.7046 51.1385 35.4864L46.5855 40.0523C45.2134 41.4283 43.4047 42.1208 41.6094 42.1208C39.814 42.1208 38.0009 41.4283 36.6332 40.0523C35.2611 38.6763 34.5705 36.8624 34.5705 35.062C34.5705 33.2615 35.2611 31.4432 36.6332 30.0717L58.1105 8.53342L50.6841 1.08594L13.365 38.5199Z" fill="white" style="fill:white;fill-opacity:1;"/>
<path d="M85.8428 36.3398L48.5148 73.7738L50.6888 75.9495L88.0168 38.52L85.8428 36.3398Z" fill="white" style="fill:white;fill-opacity:1;"/>
<path d="M38.5313 63.7614L41.3691 66.6072L78.6927 29.1777L60.2626 10.6953L38.7852 32.2291C38.0012 33.0154 37.618 34.0295 37.618 35.0571C37.618 36.0846 38.0056 37.0988 38.7852 37.8851C39.5693 38.6669 40.5806 39.0556 41.6052 39.0556C42.6299 39.0556 43.6411 38.6669 44.4252 37.8851L48.9782 33.3192C50.3503 31.9432 52.159 31.2507 53.9543 31.2507C55.7497 31.2507 57.5629 31.9432 58.9305 33.3192C60.3026 34.6952 60.9932 36.5091 60.9932 38.3095C60.9932 40.1099 60.3026 41.9283 58.9305 43.2998L38.5313 63.7614Z" fill="white" style="fill:white;fill-opacity:1;"/>
<path d="M80.8492 31.3342L43.5237 68.7656L46.3588 71.6088L83.6842 34.1774L80.8492 31.3342Z" fill="white" style="fill:white;fill-opacity:1;"/>
<path d="M92.8505 68.8247C92.8995 69.6556 92.9886 70.3392 93.1178 70.8842C93.247 71.4293 93.4652 71.8671 93.7637 72.1977C94.0622 72.5283 94.4498 72.7651 94.9265 72.908C95.4032 73.051 96.0224 73.1225 96.7886 73.1225C98.1741 73.1225 99.1409 72.8857 99.6888 72.4121C100.237 71.9386 100.513 71.0987 100.513 69.888C100.513 69.392 100.446 68.9632 100.317 68.6102C100.188 68.2528 99.9784 67.9535 99.6888 67.7033C99.4037 67.4531 99.025 67.2342 98.5617 67.0466C98.0984 66.8589 97.5282 66.6802 96.8599 66.5149L94.8908 66.019C93.7949 65.7331 92.8326 65.4025 92.0085 65.0227C91.1843 64.643 90.4938 64.156 89.9325 63.5663C89.3712 62.9766 88.9479 62.2528 88.6628 61.3995C88.3777 60.5462 88.2351 59.5142 88.2351 58.308C88.2351 57.1464 88.3822 56.1054 88.6806 55.1806C88.9791 54.2558 89.4558 53.474 90.1107 52.8352C90.7655 52.1963 91.6343 51.7093 92.7079 51.3787C93.7816 51.0481 95.0958 50.8828 96.6461 50.8828C98.2944 50.8828 99.6576 51.0481 100.745 51.3787C101.832 51.7093 102.696 52.2186 103.337 52.9066C103.983 53.5946 104.442 54.4658 104.714 55.5202C104.986 56.5745 105.151 57.8255 105.195 59.2685H100.437C100.388 58.4375 100.299 57.7629 100.17 57.2447C100.036 56.722 99.8314 56.3199 99.5418 56.0384C99.2567 55.7525 98.8869 55.5604 98.4325 55.4532C97.9781 55.3459 97.4079 55.2923 96.7129 55.2923C95.4967 55.2923 94.6013 55.5112 94.0266 55.9491C93.4519 56.3869 93.1668 57.1508 93.1668 58.2409C93.1668 58.8083 93.2336 59.2774 93.3628 59.6438C93.492 60.0101 93.7103 60.3273 94.0088 60.5864C94.3072 60.8455 94.6948 61.0645 95.1715 61.2432C95.6482 61.4219 96.2318 61.5916 96.9267 61.7569L98.8958 62.2528C101.092 62.7979 102.736 63.6378 103.836 64.777C104.932 65.9163 105.485 67.5737 105.485 69.7539C105.485 70.9378 105.329 71.9833 105.021 72.8812C104.71 73.7837 104.211 74.5387 103.52 75.1552C102.83 75.7718 101.921 76.2409 100.798 76.5581C99.6755 76.8797 98.3167 77.0361 96.7174 77.0361C95.1403 77.0361 93.8172 76.8887 92.7435 76.5938C91.6699 76.299 90.7923 75.8254 90.1107 75.1731C89.4291 74.5208 88.9301 73.6765 88.6094 72.6311C88.2886 71.5901 88.0881 70.3213 88.0168 68.8291H92.8505V68.8247Z" fill="white" style="fill:white;fill-opacity:1;"/>
<path d="M115.829 76.889C114.399 76.889 113.187 76.7281 112.198 76.4109C111.209 76.0893 110.407 75.5621 109.802 74.8294C109.191 74.0967 108.75 73.1496 108.478 71.988C108.202 70.8264 108.069 69.4057 108.069 67.7259C108.069 66.0684 108.207 64.6478 108.478 63.4638C108.755 62.2799 109.196 61.3149 109.802 60.5688C110.412 59.8228 111.192 59.2777 112.145 58.9337C113.098 58.5897 114.27 58.4199 115.651 58.4199C117.081 58.4199 118.266 58.6076 119.193 58.9873C120.124 59.3671 120.863 59.9344 121.411 60.6939C121.959 61.4534 122.342 62.4184 122.556 63.5889C122.77 64.7594 122.877 66.131 122.877 67.6946V68.6194H112.782C112.804 69.6604 112.871 70.4958 112.978 71.1258C113.085 71.7557 113.25 72.2382 113.477 72.5822C113.704 72.9262 114.007 73.1496 114.39 73.2568C114.773 73.364 115.237 73.4176 115.785 73.4176C116.693 73.4176 117.348 73.2568 117.754 72.9396C118.159 72.6179 118.409 72.0103 118.507 71.1079H122.73C122.587 72.886 121.977 74.2933 120.903 75.3387C119.839 76.3707 118.141 76.889 115.829 76.889ZM115.722 62.2844C115.295 62.2844 114.911 62.3246 114.577 62.4095C114.243 62.4944 113.963 62.6463 113.735 62.8696C113.508 63.093 113.325 63.4192 113.178 63.8481C113.036 64.2725 112.929 64.8443 112.858 65.5547H118.404C118.311 64.2278 118.057 63.3521 117.651 62.9233C117.246 62.4988 116.604 62.2844 115.722 62.2844Z" fill="white" style="fill:white;fill-opacity:1;"/>
<path d="M124.418 58.6957H126.637V54.4336H131.217V58.6957H135.547V62.5691H131.217V70.6376C131.217 71.607 131.39 72.2504 131.738 72.5586C132.085 72.8669 132.696 73.0188 133.582 73.0188H135.48V76.6063H132.687C130.468 76.6063 128.882 76.1372 127.924 75.2034C126.971 74.2697 126.494 72.6614 126.494 70.3874V62.5691H124.418V58.6957Z" fill="white" style="fill:white;fill-opacity:1;"/>
<path d="M137.338 58.6957H139.556V54.4336H144.136V58.6957H148.466V62.5691H144.136V70.6376C144.136 71.607 144.31 72.2504 144.657 72.5586C145.004 72.8669 145.615 73.0188 146.501 73.0188H148.399V76.6063H145.606C143.387 76.6063 141.801 76.1372 140.844 75.2034C139.89 74.2697 139.414 72.6614 139.414 70.3874V62.5691H137.338V58.6957Z" fill="white" style="fill:white;fill-opacity:1;"/>
<path d="M158.062 76.889C156.632 76.889 155.42 76.7281 154.431 76.4109C153.442 76.0893 152.64 75.5621 152.034 74.8294C151.424 74.0967 150.983 73.1496 150.711 71.988C150.435 70.8264 150.302 69.4057 150.302 67.7259C150.302 66.0684 150.44 64.6478 150.711 63.4638C150.988 62.2799 151.429 61.3149 152.034 60.5688C152.645 59.8228 153.424 59.2777 154.378 58.9337C155.331 58.5897 156.503 58.4199 157.884 58.4199C159.314 58.4199 160.499 58.6076 161.426 58.9873C162.357 59.3671 163.096 59.9344 163.644 60.6939C164.192 61.4534 164.575 62.4184 164.789 63.5889C165.003 64.7594 165.11 66.131 165.11 67.6946V68.6194H155.015C155.037 69.6604 155.104 70.4958 155.211 71.1258C155.318 71.7557 155.483 72.2382 155.71 72.5822C155.937 72.9262 156.24 73.1496 156.623 73.2568C157.006 73.364 157.47 73.4176 158.017 73.4176C158.926 73.4176 159.581 73.2568 159.987 72.9396C160.392 72.6179 160.641 72.0103 160.739 71.1079H164.963C164.82 72.886 164.21 74.2933 163.136 75.3387C162.071 76.3707 160.379 76.889 158.062 76.889ZM157.955 62.2844C157.527 62.2844 157.144 62.3246 156.81 62.4095C156.476 62.4944 156.195 62.6463 155.968 62.8696C155.741 63.093 155.558 63.4192 155.411 63.8481C155.269 64.2725 155.162 64.8443 155.091 65.5547H160.637C160.543 64.2278 160.29 63.3521 159.884 62.9233C159.483 62.4988 158.837 62.2844 157.955 62.2844Z" fill="white" style="fill:white;fill-opacity:1;"/>
<path d="M167.872 64.8804C167.872 62.7002 168.353 61.1276 169.32 60.1537C170.286 59.1842 171.877 58.6973 174.1 58.6973H177.107V62.5707H174.746C173.984 62.5707 173.431 62.736 173.097 63.0666C172.763 63.3972 172.598 63.9422 172.598 64.7017V76.6078H167.872V64.8804Z" fill="white" style="fill:white;fill-opacity:1;"/>
<path d="M186.445 76.889C184.988 76.889 183.767 76.7326 182.778 76.4288C181.789 76.1205 180.987 75.6068 180.381 74.883C179.771 74.1593 179.339 73.2121 179.076 72.0416C178.813 70.8711 178.684 69.4057 178.684 67.6544C178.684 65.8763 178.822 64.3976 179.094 63.2137C179.37 62.0297 179.811 61.0826 180.417 60.3723C181.027 59.6619 181.825 59.1571 182.814 58.8622C183.803 58.5674 185.015 58.4199 186.445 58.4199C187.875 58.4199 189.086 58.5808 190.08 58.898C191.069 59.2196 191.871 59.7379 192.477 60.4616C193.087 61.1854 193.528 62.1325 193.8 63.303C194.076 64.4735 194.21 65.9255 194.21 67.6544C194.21 69.4102 194.076 70.8711 193.818 72.0416C193.555 73.2121 193.118 74.1637 192.512 74.883C191.902 75.6068 191.104 76.1205 190.115 76.4288C189.122 76.7371 187.901 76.889 186.445 76.889ZM186.445 73.3015C187.019 73.3015 187.496 73.2345 187.875 73.1049C188.258 72.9753 188.561 72.7073 188.788 72.3052C189.015 71.9031 189.171 71.3268 189.251 70.5807C189.336 69.8346 189.376 68.8562 189.376 67.65C189.376 66.5152 189.336 65.6083 189.251 64.9337C189.167 64.2591 189.011 63.7319 188.788 63.3521C188.561 62.9724 188.258 62.7267 187.875 62.6061C187.492 62.4854 187.015 62.4274 186.445 62.4274C185.87 62.4274 185.393 62.4854 185.015 62.6061C184.631 62.7267 184.329 62.9724 184.101 63.3521C183.874 63.7319 183.714 64.2591 183.62 64.9337C183.527 65.6083 183.478 66.5152 183.478 67.65C183.478 68.883 183.527 69.8659 183.62 70.5986C183.714 71.3313 183.874 71.9031 184.101 72.3052C184.329 72.7073 184.631 72.9753 185.015 73.1049C185.398 73.2345 185.874 73.3015 186.445 73.3015Z" fill="white" style="fill:white;fill-opacity:1;"/>
<path d="M200.264 67.829L194.967 58.6973H200.157L203.2 64.2415L206.421 58.6973H211L205.703 67.5118L211 76.6078H205.81L202.732 71.0636L199.547 76.6078H194.967L200.264 67.829Z" fill="white" style="fill:white;fill-opacity:1;"/>
</svg>
