<svg width="164" height="25" viewBox="0 0 164 25" fill="none" xmlns="http://www.w3.org/2000/svg">
<g clip-path="url(#clip0_1831_1759)">
<path d="M112.806 20.3998C109.674 22.6639 106.245 23.1801 102.649 21.7582C99.0538 20.3364 96.99 17.6829 96.3977 13.9834C96.1908 12.6783 96.2511 11.3461 96.5752 10.0641C96.8993 8.78208 97.4806 7.57593 98.2854 6.51579C99.0902 5.45564 100.102 4.56267 101.263 3.8888C102.424 3.21492 103.71 2.77361 105.046 2.59053C106.412 2.37645 107.808 2.44518 109.145 2.79228C110.482 3.13938 111.729 3.75711 112.806 4.60555C112.899 4.85913 112.677 4.95422 112.533 5.05837C110.623 6.67184 109.417 8.94068 109.165 11.3978C108.799 14.7939 109.998 17.6014 112.543 19.8972C112.682 20.0375 112.908 20.1281 112.806 20.3998Z" fill="#E62223"/>
<path d="M112.895 4.58746C116.37 1.70302 122.103 1.75736 125.689 4.77311C128.878 7.45379 130.067 10.8952 129.081 14.8664C128.096 18.8376 125.412 21.3371 121.349 22.2518C119.889 22.6041 118.366 22.6202 116.899 22.2988C115.432 21.9774 114.061 21.3274 112.895 20.3998C112.895 19.947 113.306 19.7387 113.584 19.4942C115.001 18.2009 115.964 16.5016 116.333 14.64C117.004 11.2484 116.231 8.23264 113.746 5.69686C113.427 5.33914 112.941 5.12178 112.895 4.58746Z" fill="#F89E1B"/>
<path d="M112.894 4.58691C113.537 5.37481 114.37 5.99065 114.949 6.851C115.989 8.34546 116.592 10.0898 116.693 11.8954C116.868 14.3304 116.104 16.7411 114.551 18.6514C114.056 19.2718 113.449 19.8106 112.894 20.3857H112.848H112.806C112.344 19.8378 111.747 19.4031 111.279 18.8371C110.026 17.3432 109.24 15.5272 109.016 13.607C108.708 11.1267 109.385 8.62509 110.909 6.62007C111.351 5.95277 111.911 5.36718 112.561 4.89031C112.655 4.80567 112.737 4.70982 112.806 4.60503L112.894 4.58691Z" fill="#F16522"/>
<path d="M54.7972 14.5126C55.843 11.9316 56.9027 9.35507 57.9207 6.76496C57.9589 6.57536 58.0712 6.40781 58.2336 6.2979C58.3961 6.18798 58.5959 6.14435 58.7907 6.17629C59.7162 6.22157 60.674 6.17629 61.6088 6.17629C61.6828 6.38459 61.5625 6.52043 61.5023 6.66081C59.8365 10.555 58.1613 14.4492 56.5094 18.348C56.465 18.4987 56.3655 18.6282 56.2298 18.7117C56.0941 18.7953 55.9317 18.827 55.7736 18.8008C54.9083 18.7736 54.0383 18.7736 53.1684 18.8008C52.8121 18.8008 52.7056 18.6786 52.6177 18.348C51.7755 15.133 50.9148 11.918 50.0819 8.69848C50.0268 8.4332 49.9072 8.1848 49.7332 7.97434C49.5592 7.76389 49.336 7.59756 49.0824 7.48945C48.2025 7.11055 47.2905 6.80753 46.3568 6.58382C46.2088 6.5476 46.0005 6.58383 46.0375 6.32119C46.0746 6.05856 46.255 6.12195 46.417 6.12195C48.2078 6.12195 50.0032 6.12195 51.7987 6.12195C52.6501 6.12195 53.1869 6.63363 53.3627 7.58908C53.7514 9.59354 54.134 11.5995 54.5103 13.607C54.5658 13.8832 54.626 14.1594 54.6862 14.4357L54.7972 14.5126Z" fill="#1434CB"/>
<path d="M73.1786 5.96818C74.063 5.96627 74.9416 6.10701 75.7792 6.38477C76.08 6.47533 76.1448 6.59307 76.0661 6.8874C75.9088 7.4987 75.7746 8.11906 75.6635 8.73942C75.5987 9.11073 75.4969 9.19224 75.099 9.05186C74.1262 8.63394 73.047 8.51396 72.0032 8.70772C71.787 8.75044 71.5792 8.82689 71.3878 8.93413C71.2421 8.98783 71.1148 9.08065 71.0205 9.20191C70.9263 9.32317 70.8688 9.46798 70.8548 9.61972C70.8408 9.77146 70.8708 9.92399 70.9413 10.0598C71.0118 10.1957 71.1201 10.3093 71.2536 10.3877C71.7108 10.7245 72.2042 11.0114 72.7251 11.2435C73.4481 11.5721 74.1072 12.021 74.6732 12.5702C75.2403 13.2346 75.5416 14.0777 75.5211 14.9431C75.5007 15.8084 75.16 16.637 74.5622 17.275C73.9466 17.9529 73.1427 18.4407 72.2485 18.6787C70.3112 19.2017 68.2577 19.1385 66.3578 18.4976C66.0802 18.4116 65.9784 18.3074 66.057 17.9995C66.2329 17.3203 66.3856 16.6411 66.5198 15.9347C66.5799 15.5815 66.7095 15.5905 66.9825 15.7219C68.0533 16.2285 69.2461 16.4368 70.4299 16.3241C70.503 16.3235 70.5758 16.3159 70.6474 16.3015C71.2258 16.1475 71.8366 16.0117 71.9801 15.3234C72.1235 14.6351 71.6053 14.3226 71.1148 14.0193C70.4253 13.5936 69.671 13.2947 68.9908 12.851C66.529 11.239 67.1954 8.44509 68.8566 7.19985C70.069 6.2761 71.4803 5.9546 73.1786 5.96818Z" fill="#1434CB"/>
<path d="M62.0539 18.8232C61.5912 18.8232 61.1655 18.8232 60.7212 18.8232C60.3834 18.8232 60.3557 18.6964 60.4158 18.4337C61.2889 14.464 62.1603 10.4928 63.0303 6.52013C63.0905 6.23939 63.2061 6.17146 63.4699 6.17599C64.2982 6.17599 65.1358 6.20769 65.9641 6.17599C66.4268 6.17599 66.4592 6.31636 66.3759 6.70126C65.7975 9.27326 65.2376 11.8498 64.673 14.4263C64.3861 15.7349 64.0946 17.0391 63.8308 18.3477C63.7568 18.71 63.6226 18.8775 63.2154 18.8322C62.8287 18.8088 62.441 18.8058 62.0539 18.8232Z" fill="#1434CB"/>
<path d="M87.2223 18.3028C86.4572 14.7889 85.7014 11.2751 84.9548 7.7612C84.8438 7.24951 84.9224 6.57935 84.5569 6.28049C84.1913 5.98163 83.525 6.22615 83.0807 6.18992H82.0581C80.9938 6.18992 80.6282 6.42991 80.2071 7.40347C79.3464 9.41397 78.4842 11.4275 77.6204 13.4441C76.917 15.0878 76.2322 16.7405 75.501 18.3843C75.3391 18.751 75.4085 18.8371 75.8111 18.8371C76.2136 18.8371 76.6995 18.8371 77.1391 18.8371C77.7129 18.8371 78.4024 19.0499 78.8142 18.742C79.2261 18.4341 79.2261 17.8364 79.4158 17.3292C79.4263 17.314 79.4341 17.2971 79.439 17.2794C79.4899 17.0213 79.6518 16.9489 79.9017 16.9534C80.6421 16.9534 81.3825 16.9534 82.1229 16.9534C82.6735 16.9534 83.3584 16.736 83.7332 17.0394C84.108 17.3428 84.0432 17.9677 84.1219 18.4613C84.1728 18.7646 84.3024 18.8416 84.5846 18.8326C85.325 18.8326 86.0654 18.8009 86.8012 18.8326C87.2917 18.8597 87.3056 18.6786 87.2223 18.3028ZM82.965 14.3361C82.2617 14.3361 81.5768 14.3361 80.8596 14.3361C80.4986 14.3361 80.5819 14.1504 80.6606 13.9512L82.1876 9.8351H82.2941C82.5902 11.2479 82.8817 12.6607 83.1872 14.0689C83.2334 14.2953 83.1501 14.3406 82.9835 14.3361H82.965Z" fill="#1434CB"/>
<path d="M20.0228 0.022373H38.3427C39.5458 0.022373 39.9762 0.443492 39.9762 1.62081V23.3968C39.9762 24.5831 39.5135 25.0224 38.2964 25.0224H1.70752C0.471997 25.0224 0 24.5696 0 23.347V1.61176C0 0.452553 0.46274 0.00878906 1.64736 0.00878906L20.0228 0.022373Z" fill="#EC6A2A"/>
<path d="M13.9884 0.448037H25.4782C28.42 0.39899 31.2823 1.38347 33.5458 3.22286C35.8092 5.06226 37.3239 7.63467 37.8149 10.4734C38.9949 16.6181 34.659 22.9349 28.3704 24.2435C27.3935 24.4446 26.3978 24.5448 25.3996 24.5424H1.7998C0.716985 24.5424 0.490234 24.325 0.490234 23.2836V1.67517C0.490234 0.656329 0.707732 0.448037 1.77204 0.448037H13.9884Z" fill="#FEFEFE"/>
<path d="M22.6612 12.416C22.6693 12.7864 22.6014 13.1546 22.4615 13.4989C22.3216 13.8431 22.1126 14.1564 21.8468 14.4203C21.5811 14.6841 21.264 14.8932 20.9143 15.035C20.5645 15.1769 20.1893 15.2486 19.8107 15.2461C19.427 15.2516 19.0461 15.1822 18.6901 15.0421C18.3341 14.902 18.0101 14.694 17.7371 14.4302C17.464 14.1664 17.2474 13.852 17.0997 13.5054C16.952 13.1589 16.8763 12.787 16.877 12.4115C16.8913 11.6634 17.2027 10.9501 17.7451 10.4227C18.2875 9.89533 19.0184 9.59522 19.783 9.58594C20.1621 9.58593 20.5375 9.65923 20.8876 9.80162C21.2378 9.94401 21.5557 10.1527 21.8231 10.4157C22.0906 10.6787 22.3023 10.9908 22.4461 11.334C22.5899 11.6773 22.663 12.045 22.6612 12.416Z" fill="#EC6A2A"/>
<path d="M1.87345 12.398C1.87345 11.6418 1.87345 10.8811 1.87345 10.1339C1.87345 9.85769 1.93825 9.74449 2.23903 9.76261C2.95628 9.80789 3.67816 9.69015 4.38615 9.88486C4.9833 10.0293 5.51041 10.3727 5.8769 10.8561C6.2434 11.3395 6.42638 11.9327 6.39443 12.5338C6.3696 13.1807 6.10603 13.7968 5.65253 14.268C5.19904 14.7393 4.58636 15.0337 3.92802 15.0968C3.27093 15.1511 2.60459 15.0968 1.94287 15.0968C1.86962 14.511 1.84949 13.92 1.88271 13.3308C1.85957 13.0138 1.87345 12.7014 1.87345 12.398Z" fill="#231F20"/>
<path d="M34.0816 12.8827L35.7706 15.115C35.4189 15.115 35.1505 15.0924 34.8868 15.115C34.7345 15.1429 34.5771 15.1202 34.4396 15.0505C34.3021 14.9807 34.1924 14.868 34.1279 14.7302C33.756 14.1249 33.3252 13.5562 32.8415 13.0321C32.8415 13.5891 32.8045 14.1551 32.8415 14.7075C32.8785 15.2599 32.5638 15.1105 32.2862 15.106C32.0085 15.1015 31.7078 15.2373 31.717 14.7256C31.7494 13.1906 31.717 11.6555 31.717 10.1205C31.717 9.84425 31.7818 9.73559 32.0826 9.74917C32.6194 9.78087 33.1561 9.74917 33.6883 9.78539C34.0713 9.775 34.4444 9.90549 34.734 10.1511C35.0236 10.3967 35.2085 10.7396 35.2524 11.1121C35.3865 11.9272 34.9932 12.534 34.0816 12.8827Z" fill="#231F20"/>
<path d="M10.2917 15.2195C9.95455 15.2493 9.61503 15.2009 9.30064 15.0781C8.98626 14.9554 8.7059 14.7618 8.48235 14.5131C8.06125 14.0603 8.56565 13.9878 8.72298 13.766C8.93584 13.4671 9.04227 13.6709 9.18572 13.8384C9.32821 14.0186 9.52603 14.1493 9.75011 14.2113C9.97419 14.2732 10.2127 14.2631 10.4305 14.1825C10.5644 14.1398 10.6812 14.0568 10.7642 13.9455C10.8473 13.8341 10.8924 13.7 10.8932 13.5622C10.9041 13.4347 10.8726 13.3072 10.8034 13.1986C10.7342 13.0901 10.631 13.0064 10.5092 12.9599C10.1575 12.8105 9.79191 12.6792 9.44486 12.5071C9.12955 12.4134 8.8607 12.209 8.68991 11.9333C8.51911 11.6575 8.45839 11.3297 8.51937 11.0128C8.55952 10.6961 8.70043 10.3998 8.92215 10.1657C9.14388 9.9317 9.43519 9.77183 9.75488 9.70872C10.0627 9.64289 10.3809 9.63782 10.6908 9.6938C11.0007 9.74978 11.296 9.86568 11.5596 10.0347C11.7308 10.1479 11.9668 10.2883 11.6891 10.4876C11.4948 10.6143 11.5457 11.2347 11.0459 10.8272C10.9503 10.7408 10.8366 10.6758 10.7128 10.6368C10.5889 10.5977 10.4579 10.5854 10.3287 10.6008C10.0233 10.646 9.73175 10.7411 9.67159 11.0808C9.61144 11.4204 9.86595 11.5562 10.1343 11.6649C10.4027 11.7736 10.7822 11.9185 11.0968 12.0724C11.4393 12.1949 11.7234 12.437 11.8943 12.7522C12.0652 13.0674 12.1108 13.4334 12.0223 13.7795C11.9644 14.1584 11.7776 14.5071 11.4921 14.7692C11.2066 15.0313 10.8391 15.1916 10.449 15.224C10.3965 15.2277 10.3438 15.2261 10.2917 15.2195Z" fill="#231F20"/>
<path d="M22.3652 9.83039C22.4439 9.78964 22.4578 9.77152 22.4763 9.77152C23.5267 9.7036 23.5267 9.7036 23.9247 10.6772C24.2578 11.4983 24.5895 12.3179 24.9196 13.1359C25.1417 13.0861 25.1324 12.8869 25.1926 12.7511C25.5165 11.9858 25.8589 11.2251 26.1181 10.4417C26.1374 10.3245 26.1815 10.2126 26.2475 10.113C26.3135 10.0134 26.3999 9.92826 26.5013 9.8631C26.6027 9.79795 26.7169 9.75414 26.8365 9.73448C26.9561 9.71481 27.0787 9.71973 27.1962 9.74889C27.5063 9.78511 27.622 9.78964 27.4693 10.1383C26.7659 11.7413 26.081 13.3533 25.3962 14.9608C25.3719 15.0589 25.3109 15.1445 25.2252 15.2007C25.1395 15.2568 25.0354 15.2795 24.9334 15.2642C24.8438 15.2692 24.7551 15.2447 24.6813 15.1946C24.6075 15.1446 24.5529 15.0718 24.5262 14.988C23.809 13.2718 23.0825 11.5647 22.3652 9.83039Z" fill="#231F20"/>
<path d="M28.0471 12.4069C28.0471 11.6643 28.0471 10.9262 28.0471 10.1836C28.0471 9.8666 28.1072 9.73075 28.4682 9.75339C29.2271 9.78056 29.986 9.78056 30.7402 9.75339C31.1289 9.75339 31.1104 9.94811 31.0827 10.2062C31.0549 10.4643 31.2261 10.7451 30.7588 10.7134C30.2914 10.6817 29.9119 10.7134 29.4862 10.7134C29.2502 10.7134 29.1762 10.7949 29.1623 11.0258C29.0975 11.8816 29.0836 11.8816 29.9628 11.8816C30.1291 11.8952 30.2963 11.8952 30.4626 11.8816C30.9253 11.8001 31.0503 12.0084 31.0179 12.4431C31.0179 12.751 30.9161 12.8733 30.6014 12.8371C30.4473 12.8272 30.2928 12.8272 30.1387 12.8371C29.0651 12.8371 29.0744 12.8371 29.1392 13.8876C29.1392 14.1321 29.2363 14.1955 29.4677 14.1865C29.8888 14.1865 30.3191 14.1865 30.7402 14.1865C31.1613 14.1865 31.0595 14.4808 31.0595 14.6936C31.0595 14.9064 31.1937 15.1781 30.7634 15.1464C29.9675 15.1464 29.1762 15.1464 28.3803 15.1464C28.0471 15.1464 28.0332 15.0061 28.0332 14.757C28.0517 13.9601 28.0471 13.1812 28.0471 12.4069Z" fill="#231F20"/>
<path d="M16.607 13.7199C16.5928 13.9007 16.5928 14.0824 16.607 14.2633C16.7134 14.8293 16.4266 15.0512 15.899 15.1689C15.3287 15.2943 14.7333 15.252 14.1875 15.0474C13.6416 14.8428 13.1697 14.4849 12.8311 14.0187C12.4994 13.5365 12.3281 12.9658 12.3405 12.3846C12.3529 11.8035 12.5485 11.2403 12.9005 10.772C13.2579 10.3198 13.7429 9.97975 14.2954 9.79389C14.848 9.60802 15.444 9.58443 16.0101 9.72602C16.4358 9.84376 16.6996 10.0249 16.6116 10.5094C16.5929 10.7249 16.5929 10.9415 16.6116 11.1569C15.2512 10.4686 14.5339 10.5003 13.9185 11.2565C13.6422 11.5981 13.4919 12.0209 13.4919 12.4565C13.4919 12.8921 13.6422 13.3149 13.9185 13.6565C14.5524 14.3538 15.4224 14.3855 16.607 13.7199Z" fill="#231F20"/>
<path d="M7.89833 12.3981C7.89833 13.1588 7.86131 13.9241 7.89833 14.6622C7.93535 15.1739 7.63457 15.0878 7.32453 15.115C7.0145 15.1422 6.75075 15.115 6.76 14.6622C6.79702 13.1951 6.80165 11.7279 6.76 10.2608C6.76 9.77177 6.97284 9.77178 7.34766 9.75366C7.72248 9.73555 7.92146 9.85782 7.89833 10.288C7.87056 10.9853 7.89833 11.6917 7.89833 12.3981Z" fill="#252122"/>
<path d="M35.7507 9.81229C35.9451 9.60399 36.0746 9.71267 36.1811 9.90286C36.3014 10.3828 36.2644 10.4236 35.7461 10.3783C35.6749 10.3003 35.6359 10.1991 35.6367 10.0944C35.6376 9.98979 35.6782 9.88921 35.7507 9.81229Z" fill="#2D2929"/>
<path d="M35.746 10.329C36.0885 10.3833 36.2087 10.2203 36.181 9.90332C36.5188 10.0165 36.4216 10.252 36.2782 10.415C36.2449 10.4694 36.1978 10.5144 36.1414 10.5457C36.085 10.577 36.0214 10.5934 35.9566 10.5934C35.8918 10.5934 35.8281 10.577 35.7717 10.5457C35.7154 10.5144 35.6682 10.4694 35.635 10.415C35.6072 10.3199 35.6535 10.2973 35.746 10.329Z" fill="#565151"/>
<path d="M35.7466 10.3287L35.6355 10.4283C35.4088 10.1748 35.3995 9.97551 35.7512 9.8125L35.7466 10.3287Z" fill="#4A4545"/>
<path d="M2.96985 12.4384C2.96985 11.9856 2.96985 11.5328 2.96985 11.08C2.94209 10.7177 3.10405 10.6634 3.43259 10.6906C4.82082 10.8128 5.61672 11.9539 5.09382 13.1494C4.92802 13.4944 4.65309 13.7781 4.30972 13.9583C3.96635 14.1385 3.5728 14.2058 3.18733 14.1501C2.95596 14.1093 2.99298 13.978 2.98835 13.8422L2.96985 12.4384Z" fill="#FEFEFE"/>
<path d="M32.8408 11.343C33.0028 11.1619 32.5169 10.6366 33.211 10.6548C33.8126 10.6548 34.1365 10.9219 34.1087 11.4381C34.0809 11.9543 33.7755 12.2079 33.1832 12.1989C32.8408 12.1898 32.8408 12.1898 32.8408 11.343Z" fill="#FDFDFD"/>
<path d="M143.19 4.58218L164 0.506836V24.4925L139.025 24.0397L143.19 4.58218Z" fill="white"/>
<path d="M138.568 0.0546875V24.9596H164.019V21.0246H160.507L159.211 19.5394L157.865 21.0246H147.893V13.1049H144.603L148.716 3.99418H152.714L153.681 6.05903V3.99418H158.651L159.48 6.15865L160.294 3.99418H164.019V0.0546875H138.568ZM161.132 5.28018L159.822 8.64914L159.475 9.55477L159.119 8.64914L157.805 5.28018H154.931V11.9185H156.662V7.59861V6.72467L156.999 7.59861L158.656 11.9185H160.299L161.96 7.59861L162.284 6.73373V11.9185H164.014V5.28018H161.132ZM149.632 5.28018L146.629 11.9185H148.596L149.123 10.6415H152.395L152.923 11.9185H154.912L151.932 5.28018H149.632ZM150.428 7.54426L150.771 6.71561L151.109 7.54426L151.812 9.21969H149.725L150.428 7.54426ZM161.266 13.1275L159.22 15.2738L157.189 13.1275H149.267V19.7386H154.931V18.3032H151.007V17.1394H154.866V15.7086H151.007V14.5493H154.94V13.1139L158.105 16.4331L154.94 19.725H157.129L159.188 17.5696L161.243 19.725H163.501L160.331 16.4059L163.501 13.1139L161.266 13.1275ZM162.089 16.415L164.005 18.3213V14.5131L162.089 16.415Z" fill="#006FCF"/>
</g>
<defs>
<clipPath id="clip0_1831_1759">
<rect width="164" height="25" fill="white"/>
</clipPath>
</defs>
</svg>
