<svg width="24" height="24" viewBox="0 0 24 24" fill="none" xmlns="http://www.w3.org/2000/svg">
<path d="M7.56488 18.1281C6.19752 18.1281 5.08911 19.2366 5.08911 20.6039C5.08911 21.9713 6.19757 23.0797 7.56488 23.0797C8.93224 23.0797 10.0407 21.9712 10.0407 20.6039C10.0407 19.2366 8.93224 18.1281 7.56488 18.1281ZM7.56488 21.9794C6.80525 21.9794 6.18947 21.3636 6.18947 20.604C6.18947 19.8443 6.80525 19.2285 7.56488 19.2285C8.32451 19.2285 8.9403 19.8443 8.9403 20.604C8.94035 21.3636 8.32451 21.9794 7.56488 21.9794Z" fill="black"/>
<path d="M18.0183 18.1281C16.6509 18.1281 15.5425 19.2366 15.5425 20.6039C15.5425 21.9713 16.6509 23.0797 18.0183 23.0797C19.3856 23.0797 20.494 21.9712 20.494 20.6039C20.494 19.2366 19.3856 18.1281 18.0183 18.1281ZM18.0183 21.9794C17.2586 21.9794 16.6428 21.3636 16.6428 20.604C16.6428 19.8443 17.2586 19.2285 18.0183 19.2285C18.7779 19.2285 19.3937 19.8443 19.3937 20.604C19.3937 21.3636 18.7779 21.9794 18.0183 21.9794Z" fill="black"/>
<path d="M23.6025 3.68622C23.488 3.56107 23.3312 3.48272 23.1624 3.46613L5.25419 3.21855L4.75904 1.70555C4.41021 0.694132 3.46308 0.0113205 2.39326 0H0.550177C0.246313 0 0 0.246313 0 0.550177C0 0.854041 0.246313 1.10035 0.550177 1.10035H2.39326C2.99146 1.11357 3.51821 1.49768 3.71371 2.06318L7.20732 12.599L6.93226 13.2317C6.62545 14.0229 6.71759 14.9134 7.17984 15.625C7.63766 16.3239 8.40788 16.7553 9.24302 16.7804H19.944C20.2478 16.7804 20.4941 16.5341 20.4941 16.2302C20.4941 15.9263 20.2478 15.68 19.944 15.68H9.24296C8.77135 15.6682 8.33722 15.4201 8.08759 15.0198C7.84075 14.6244 7.79004 14.1372 7.95006 13.6994L8.17015 13.2042L19.7513 11.9938C21.0235 11.8537 22.0699 10.9285 22.3647 9.68304L23.6851 4.15379C23.7446 3.99456 23.7131 3.81549 23.6025 3.68622ZM21.2918 9.43552C21.1132 10.2372 20.4326 10.8286 19.6138 10.8935L8.17015 12.0764L5.61182 4.31891L22.4747 4.56648L21.2918 9.43552Z" fill="black"/>
</svg>
