<svg width="24" height="24" viewBox="0 0 24 24" fill="none" xmlns="http://www.w3.org/2000/svg">
<path d="M10.4879 0.85C5.1688 0.85 0.85 5.17472 0.85 10.4991C0.85 15.8235 5.16882 20.1472 10.4879 20.1472C12.9723 20.1472 15.2374 19.2025 16.9472 17.6549L22.282 22.9957C22.3283 23.0436 22.3836 23.082 22.4447 23.1084C22.5064 23.1351 22.5728 23.1492 22.64 23.1499C22.7071 23.1506 22.7738 23.1379 22.836 23.1125C22.8982 23.0871 22.9547 23.0495 23.0022 23.0019C23.0497 22.9544 23.0872 22.8979 23.1126 22.8356C23.138 22.7734 23.1507 22.7067 23.15 22.6396C23.1493 22.5724 23.1352 22.506 23.1086 22.4443C23.0821 22.3831 23.0439 22.3278 22.996 22.2814L17.6599 16.9397C19.1925 15.2313 20.1269 12.9736 20.1269 10.4991C20.1269 5.1747 15.807 0.85 10.4879 0.85ZM10.4879 1.86036C15.2575 1.86036 19.1173 5.72399 19.1173 10.4991C19.1173 12.8577 18.1748 14.9923 16.6469 16.5502C16.6118 16.5774 16.5805 16.6092 16.5537 16.6446C14.9954 18.1856 12.8541 19.1368 10.4879 19.1368C5.71832 19.1368 1.85996 15.2742 1.85996 10.4991C1.85996 5.72396 5.71834 1.86036 10.4879 1.86036Z" fill="black" stroke="black" stroke-width="0.3"/>
</svg>
