<svg width="29" height="28" viewBox="0 0 29 28" fill="none" xmlns="http://www.w3.org/2000/svg">
<path d="M29 13.9996C29 21.732 22.5045 28 14.4996 28C6.49188 28 0 21.7285 0 13.9996C0 6.26803 6.49188 0 14.4996 0C22.5081 0 29 6.26803 29 13.9996Z" fill="#121214" style="fill:#121214;fill:color(display-p3 0.0706 0.0706 0.0784);fill-opacity:1;"/>
<path d="M18.7961 12.9137L18.5545 14.7867C18.5352 14.9377 18.4594 15.0768 18.3414 15.1777C18.2234 15.2786 18.0714 15.3346 17.9137 15.3349H14.7754V23.168C14.7754 23.168 11.5678 23.168 11.5525 23.168V15.3349H9.13599C9.02907 15.3344 8.92671 15.293 8.85124 15.2199C8.77577 15.1468 8.73331 15.0478 8.73312 14.9446V12.598C8.73331 12.4948 8.77577 12.3958 8.85124 12.3227C8.92671 12.2495 9.02907 12.2082 9.13599 12.2076H11.5525V8.69555C11.5504 7.66235 11.9732 6.67061 12.7281 5.93831C13.483 5.20601 14.5082 4.79308 15.5782 4.79028H18.3976C18.5046 4.79066 18.6071 4.83195 18.6826 4.90512C18.7581 4.97829 18.8005 5.07737 18.8005 5.18067V7.5244C18.8003 7.62763 18.7578 7.72661 18.6823 7.79974C18.6069 7.87287 18.5045 7.91422 18.3976 7.91478H16.3811C15.9538 7.91702 15.5449 8.08271 15.2439 8.37555C14.9429 8.66839 14.7745 9.06448 14.7754 9.47703V12.2104H18.159C18.2503 12.2113 18.3405 12.2307 18.4235 12.2675C18.5066 12.3044 18.5806 12.3578 18.6408 12.4242C18.701 12.4906 18.7459 12.5685 18.7727 12.6529C18.7994 12.7373 18.8074 12.8261 18.7961 12.9137Z" fill="white" style="fill:white;fill-opacity:1;"/>
</svg>
