<svg width="29" height="28" viewBox="0 0 29 28" fill="none" xmlns="http://www.w3.org/2000/svg">
<path d="M29 13.9996C29 21.732 22.5046 28 14.5 28C6.4917 28 0 21.7285 0 13.9996C0 6.26803 6.4917 0 14.5 0C22.5075 0 29 6.26803 29 13.9996Z" fill="#121214" style="fill:#121214;fill:color(display-p3 0.0706 0.0706 0.0784);fill-opacity:1;"/>
<path d="M9.36427 10.1515C10.3353 10.1515 11.1224 9.39147 11.1224 8.45394C11.1224 7.51641 10.3353 6.75639 9.36427 6.75639C8.39328 6.75639 7.60614 7.51641 7.60614 8.45394C7.60614 9.39147 8.39328 10.1515 9.36427 10.1515Z" fill="white" style="fill:white;fill-opacity:1;"/>
<path d="M10.7816 11.565H7.94769C7.93117 11.565 7.91778 11.5779 7.91778 11.5939V20.3409C7.91778 20.3569 7.93117 20.3698 7.94769 20.3698H10.7816C10.7981 20.3698 10.8115 20.3569 10.8115 20.3409V11.5939C10.8115 11.5779 10.7981 11.565 10.7816 11.565Z" fill="white" style="fill:white;fill-opacity:1;"/>
<path d="M15.3648 12.5092L15.1685 12.7544V12.0603C15.1685 11.9295 15.1147 11.8041 15.0189 11.7116C14.9231 11.619 14.7931 11.5671 14.6576 11.5671H12.7901C12.6546 11.5671 12.5246 11.619 12.4288 11.7116C12.333 11.8041 12.2792 11.9295 12.2792 12.0603V19.8737C12.2792 20.0045 12.333 20.13 12.4288 20.2225C12.5246 20.315 12.6546 20.367 12.7901 20.367H14.6576C14.7931 20.367 14.9231 20.315 15.0189 20.2225C15.1147 20.13 15.1685 20.0045 15.1685 19.8737V15.6661C15.1776 15.2454 15.3571 14.8448 15.6686 14.5504C15.98 14.2559 16.3985 14.091 16.8343 14.091C17.2702 14.091 17.6887 14.2559 18.0001 14.5504C18.3115 14.8448 18.491 15.2454 18.5001 15.6661V19.8737C18.5001 20.0045 18.5539 20.13 18.6498 20.2225C18.7456 20.315 18.8755 20.367 19.011 20.367H20.8786C21.0141 20.367 21.1441 20.315 21.2399 20.2225C21.3357 20.13 21.3895 20.0045 21.3895 19.8737V14.7649C21.3895 12.3598 19.6715 11.2641 18.0746 11.2641C17.0033 11.2641 15.9881 11.7299 15.3648 12.5092Z" fill="white" style="fill:white;fill-opacity:1;"/>
</svg>
