<svg width="29" height="28" viewBox="0 0 29 28" fill="none" xmlns="http://www.w3.org/2000/svg">
<path d="M29 13.9996C29 21.732 22.5081 28 14.4996 28C6.49188 28 0 21.7285 0 13.9996C0 6.26803 6.49188 0 14.4996 0C22.5081 0 29 6.26803 29 13.9996Z" fill="#121214" style="fill:#121214;fill:color(display-p3 0.0706 0.0706 0.0784);fill-opacity:1;"/>
<path d="M18.4342 6.65634H10.5658C9.59194 6.65653 8.658 7.03019 7.96942 7.69516C7.28085 8.36012 6.89402 9.26192 6.89402 10.2022V17.7986C6.89422 18.7387 7.28113 19.6402 7.96971 20.3049C8.65828 20.9696 9.59213 21.343 10.5658 21.343H18.4342C19.4079 21.343 20.3418 20.9697 21.0305 20.305C21.7192 19.6403 22.1063 18.7387 22.1067 17.7986V10.2022C22.1067 9.73658 22.0117 9.27548 21.8271 8.84527C21.6426 8.41507 21.3721 8.02417 21.031 7.69491C20.69 7.36564 20.2851 7.10445 19.8396 6.92625C19.394 6.74806 18.9165 6.65634 18.4342 6.65634ZM20.793 17.5449C20.7918 18.2162 20.5151 18.8597 20.0235 19.3344C19.5318 19.8092 18.8653 20.0763 18.17 20.0775H10.8278C10.1326 20.0762 9.46634 19.8089 8.97484 19.3342C8.48333 18.8595 8.20667 18.2161 8.20552 17.5449V10.4545C8.20687 9.78341 8.4836 9.14017 8.97509 8.66564C9.46657 8.1911 10.1328 7.92393 10.8278 7.92263H18.1714C18.8664 7.92412 19.5324 8.19137 20.0237 8.66589C20.515 9.1404 20.7916 9.78353 20.793 10.4545V17.5449Z" fill="white" style="fill:white;fill-opacity:1;"/>
<path d="M14.507 10.2022C13.7287 10.2022 12.968 10.425 12.3209 10.8424C11.6739 11.2599 11.1696 11.8532 10.8718 12.5474C10.574 13.2416 10.4962 14.0055 10.6481 14.7424C10.7999 15.4793 11.1747 16.1562 11.7251 16.6875C12.2754 17.2187 12.9765 17.5805 13.7398 17.727C14.5031 17.8735 15.2942 17.7982 16.0131 17.5105C16.7321 17.2229 17.3465 16.7359 17.7787 16.1111C18.211 15.4863 18.4416 14.7517 18.4415 14.0003C18.4411 12.993 18.0264 12.027 17.2886 11.3148C16.5508 10.6026 15.5503 10.2024 14.507 10.2022ZM14.507 16.5329C13.9882 16.5329 13.481 16.3844 13.0497 16.1061C12.6183 15.8278 12.2821 15.4323 12.0836 14.9695C11.885 14.5067 11.8331 13.9975 11.9343 13.5063C12.0355 13.015 12.2853 12.5637 12.6522 12.2095C13.019 11.8553 13.4864 11.6141 13.9952 11.5164C14.504 11.4187 15.0314 11.4688 15.5107 11.6605C15.99 11.8522 16.3997 12.1768 16.6879 12.5933C16.9761 13.0098 17.13 13.4994 17.13 14.0003C17.1286 14.6716 16.8518 15.3149 16.3602 15.7894C15.8685 16.264 15.2021 16.5318 14.507 16.5329Z" fill="white" style="fill:white;fill-opacity:1;"/>
<path d="M18.7042 10.7082C19.1387 10.7082 19.491 10.3681 19.491 9.94853C19.491 9.529 19.1387 9.1889 18.7042 9.1889C18.2697 9.1889 17.9175 9.529 17.9175 9.94853C17.9175 10.3681 18.2697 10.7082 18.7042 10.7082Z" fill="white" style="fill:white;fill-opacity:1;"/>
</svg>
