<svg width="207" height="76" viewBox="0 0 207 76" fill="none" xmlns="http://www.w3.org/2000/svg">
<path d="M46.5546 75.57H36.179L0 39.2883H10.3756L46.5546 75.57Z" fill="white" style="fill:white;fill-opacity:1;"/>
<path d="M46.5546 0H36.179L0 36.2904H10.3756L46.5546 0Z" fill="white" style="fill:white;fill-opacity:1;"/>
<path d="M13.1115 37.7898L35.6894 60.4319L55.702 40.3625C56.4668 39.5911 56.847 38.5962 56.847 37.5882C56.847 36.5801 56.4668 35.5852 55.702 34.8138C54.9328 34.0468 53.9407 33.6655 52.9354 33.6655C51.9302 33.6655 50.9381 34.0468 50.1689 34.8138L45.7023 39.2931C44.3561 40.643 42.5817 41.3224 40.8204 41.3224C39.0591 41.3224 37.2803 40.643 35.9386 39.2931C34.5925 37.9432 33.915 36.1637 33.915 34.3974C33.915 32.6311 34.5925 30.8473 35.9386 29.5017L57.0087 8.37173L49.7231 1.06543L13.1115 37.7898Z" fill="white" style="fill:white;fill-opacity:1;"/>
<path d="M84.2151 35.6514L47.5947 72.3757L49.7275 74.5102L86.3479 37.7902L84.2151 35.6514Z" fill="white" style="fill:white;fill-opacity:1;"/>
<path d="M37.8005 62.5533L40.5845 65.3452L77.2005 28.6252L59.1198 10.4932L38.0496 31.6188C37.2804 32.3901 36.9045 33.3851 36.9045 34.3931C36.9045 35.4012 37.2848 36.3961 38.0496 37.1675C38.8188 37.9345 39.8109 38.3158 40.8161 38.3158C41.8214 38.3158 42.8135 37.9345 43.5827 37.1675L48.0493 32.6882C49.3954 31.3382 51.1698 30.6589 52.9312 30.6589C54.6925 30.6589 56.4713 31.3382 57.813 32.6882C59.1591 34.0381 59.8366 35.8176 59.8366 37.5839C59.8366 39.3502 59.1591 41.134 57.813 42.4796L37.8005 62.5533Z" fill="white" style="fill:white;fill-opacity:1;"/>
<path d="M79.3162 30.7401L42.6982 67.4619L45.4796 70.2511L82.0975 33.5293L79.3162 30.7401Z" fill="white" style="fill:white;fill-opacity:1;"/>
<path d="M91.09 67.5187C91.1381 68.334 91.2255 69.0045 91.3522 69.5393C91.479 70.074 91.6931 70.5035 91.986 70.8278C92.2788 71.1522 92.659 71.3845 93.1267 71.5247C93.5943 71.665 94.2018 71.7351 94.9535 71.7351C96.3128 71.7351 97.2612 71.5028 97.7987 71.0382C98.3363 70.5736 98.6073 69.7496 98.6073 68.5619C98.6073 68.0754 98.5417 67.6546 98.415 67.3084C98.2882 66.9577 98.0828 66.6641 97.7987 66.4186C97.519 66.1732 97.1475 65.9584 96.693 65.7743C96.2385 65.5903 95.679 65.4149 95.0235 65.2528L93.0917 64.7663C92.0166 64.4858 91.0725 64.1614 90.264 63.7889C89.4554 63.4163 88.778 62.9386 88.2273 62.3601C87.6767 61.7815 87.2615 61.0715 86.9817 60.2343C86.702 59.3972 86.5622 58.3848 86.5622 57.2014C86.5622 56.0618 86.7064 55.0406 86.9992 54.1333C87.2921 53.2261 87.7597 52.4591 88.4022 51.8323C89.0446 51.2056 89.8969 50.7278 90.9502 50.4035C92.0034 50.0792 93.2927 49.917 94.8137 49.917C96.4308 49.917 97.7681 50.0792 98.8345 50.4035C99.9009 50.7278 100.749 51.2275 101.378 51.9024C102.012 52.5774 102.462 53.4321 102.729 54.4664C102.995 55.5008 103.157 56.728 103.201 58.1437H98.533C98.4849 57.3285 98.3975 56.6667 98.2707 56.1582C98.1396 55.6454 97.9386 55.251 97.6545 54.9749C97.3748 54.6944 97.012 54.5059 96.5663 54.4007C96.1205 54.2955 95.561 54.2429 94.8792 54.2429C93.6861 54.2429 92.8076 54.4577 92.2438 54.8872C91.68 55.3167 91.4003 56.0662 91.4003 57.1356C91.4003 57.6923 91.4659 58.1525 91.5926 58.5119C91.7194 58.8713 91.9335 59.1824 92.2263 59.4367C92.5192 59.6909 92.8994 59.9056 93.367 60.0809C93.8347 60.2563 94.4072 60.4228 95.089 60.585L97.0208 61.0715C99.1754 61.6062 100.788 62.4302 101.868 63.5478C102.943 64.6655 103.485 66.2915 103.485 68.4304C103.485 69.5918 103.332 70.6174 103.03 71.4984C102.724 72.3838 102.235 73.1245 101.557 73.7293C100.88 74.3341 99.9884 74.7943 98.887 75.1055C97.7856 75.4211 96.4526 75.5745 94.8836 75.5745C93.3365 75.5745 92.0384 75.4299 90.9851 75.1406C89.9318 74.8513 89.0708 74.3867 88.4022 73.7468C87.7335 73.1069 87.244 72.2786 86.9293 71.253C86.6146 70.2318 86.418 68.987 86.348 67.5231H91.09V67.5187Z" fill="white" style="fill:white;fill-opacity:1;"/>
<path d="M113.633 75.4295C112.23 75.4295 111.041 75.2717 110.071 74.9605C109.101 74.6449 108.314 74.1277 107.72 73.409C107.121 72.6902 106.688 71.761 106.422 70.6214C106.151 69.4819 106.02 68.0881 106.02 66.4401C106.02 64.8141 106.155 63.4203 106.422 62.2588C106.693 61.0974 107.125 60.1507 107.72 59.4187C108.319 58.6868 109.083 58.1521 110.019 57.8146C110.954 57.4771 112.103 57.3105 113.458 57.3105C114.861 57.3105 116.024 57.4946 116.933 57.8672C117.846 58.2397 118.572 58.7964 119.109 59.5414C119.647 60.2865 120.023 61.2332 120.233 62.3816C120.442 63.5299 120.547 64.8754 120.547 66.4095V67.3167H110.644C110.665 68.3379 110.731 69.1575 110.836 69.7755C110.941 70.3935 111.103 70.8669 111.325 71.2044C111.548 71.5418 111.846 71.761 112.221 71.8662C112.597 71.9714 113.052 72.024 113.589 72.024C114.481 72.024 115.123 71.8662 115.521 71.555C115.919 71.2394 116.164 70.6433 116.26 69.758H120.403C120.263 71.5024 119.664 72.883 118.611 73.9086C117.567 74.9211 115.901 75.4295 113.633 75.4295ZM113.528 61.1018C113.109 61.1018 112.733 61.1412 112.405 61.2245C112.077 61.3078 111.802 61.4568 111.579 61.6759C111.356 61.8951 111.177 62.215 111.033 62.6358C110.893 63.0522 110.788 63.6132 110.718 64.31H116.159C116.067 63.0083 115.818 62.1493 115.421 61.7285C115.023 61.3121 114.394 61.1018 113.528 61.1018Z" fill="white" style="fill:white;fill-opacity:1;"/>
<path d="M122.059 57.5827H124.236V53.4014H128.729V57.5827H132.977V61.3826H128.729V69.2982C128.729 70.2492 128.899 70.8804 129.24 71.1828C129.581 71.4852 130.18 71.6342 131.049 71.6342H132.911V75.1537H130.171C127.994 75.1537 126.439 74.6935 125.499 73.7775C124.564 72.8615 124.096 71.2836 124.096 69.0527V61.3826H122.059V57.5827Z" fill="white" style="fill:white;fill-opacity:1;"/>
<path d="M134.734 57.5827H136.91V53.4014H141.403V57.5827H145.651V61.3826H141.403V69.2982C141.403 70.2492 141.574 70.8804 141.914 71.1828C142.255 71.4852 142.854 71.6342 143.724 71.6342H145.586V75.1537H142.845C140.669 75.1537 139.113 74.6935 138.173 73.7775C137.238 72.8615 136.77 71.2836 136.77 69.0527V61.3826H134.734V57.5827Z" fill="white" style="fill:white;fill-opacity:1;"/>
<path d="M155.065 75.4295C153.662 75.4295 152.474 75.2717 151.503 74.9605C150.533 74.6449 149.746 74.1277 149.152 73.409C148.553 72.6902 148.121 71.761 147.854 70.6214C147.583 69.4819 147.452 68.0881 147.452 66.4401C147.452 64.8141 147.587 63.4203 147.854 62.2588C148.125 61.0974 148.558 60.1507 149.152 59.4187C149.751 58.6868 150.516 58.1521 151.451 57.8146C152.386 57.4771 153.536 57.3105 154.89 57.3105C156.293 57.3105 157.456 57.4946 158.365 57.8672C159.278 58.2397 160.004 58.7964 160.542 59.5414C161.079 60.2865 161.455 61.2332 161.665 62.3816C161.875 63.5299 161.979 64.8754 161.979 66.4095V67.3167H152.076C152.098 68.3379 152.163 69.1575 152.268 69.7755C152.373 70.3935 152.535 70.8669 152.758 71.2044C152.981 71.5418 153.278 71.761 153.654 71.8662C154.03 71.9714 154.484 72.024 155.022 72.024C155.913 72.024 156.556 71.8662 156.953 71.555C157.351 71.2394 157.596 70.6433 157.692 69.758H161.835C161.695 71.5024 161.097 72.883 160.043 73.9086C158.999 74.9211 157.338 75.4295 155.065 75.4295ZM154.96 61.1018C154.541 61.1018 154.165 61.1412 153.837 61.2245C153.509 61.3078 153.234 61.4568 153.011 61.6759C152.788 61.8951 152.609 62.215 152.465 62.6358C152.325 63.0522 152.22 63.6132 152.15 64.31H157.591C157.5 63.0083 157.251 62.1493 156.853 61.7285C156.46 61.3121 155.826 61.1018 154.96 61.1018Z" fill="white" style="fill:white;fill-opacity:1;"/>
<path d="M164.689 63.648C164.689 61.5091 165.161 59.9663 166.11 59.0109C167.058 58.0598 168.618 57.582 170.799 57.582H173.749V61.382H171.433C170.686 61.382 170.144 61.5442 169.816 61.8685C169.488 62.1928 169.326 62.7276 169.326 63.4727V75.1531H164.689V63.648Z" fill="white" style="fill:white;fill-opacity:1;"/>
<path d="M182.91 75.4295C181.481 75.4295 180.283 75.2761 179.313 74.978C178.343 74.6756 177.556 74.1716 176.962 73.4615C176.363 72.7515 175.939 71.8223 175.681 70.674C175.423 69.5257 175.296 68.0881 175.296 66.37C175.296 64.6256 175.432 63.1749 175.698 62.0134C175.969 60.8519 176.402 59.9228 176.997 59.2259C177.595 58.529 178.378 58.0337 179.348 57.7445C180.318 57.4552 181.507 57.3105 182.91 57.3105C184.313 57.3105 185.502 57.4683 186.476 57.7795C187.446 58.0951 188.233 58.6035 188.827 59.3135C189.426 60.0236 189.859 60.9527 190.125 62.1011C190.396 63.2494 190.528 64.6738 190.528 66.37C190.528 68.0925 190.396 69.5257 190.143 70.674C189.885 71.8223 189.457 72.7559 188.862 73.4615C188.264 74.1716 187.481 74.6756 186.511 74.978C185.536 75.2805 184.339 75.4295 182.91 75.4295ZM182.91 71.91C183.474 71.91 183.941 71.8443 184.313 71.7172C184.689 71.59 184.986 71.3271 185.209 70.9326C185.432 70.5381 185.585 69.9728 185.663 69.2408C185.746 68.5089 185.786 67.549 185.786 66.3656C185.786 65.2524 185.746 64.3626 185.663 63.7008C185.58 63.039 185.427 62.5218 185.209 62.1493C184.986 61.7767 184.689 61.5357 184.313 61.4173C183.937 61.299 183.469 61.242 182.91 61.242C182.346 61.242 181.878 61.299 181.507 61.4173C181.131 61.5357 180.834 61.7767 180.611 62.1493C180.388 62.5218 180.231 63.039 180.139 63.7008C180.047 64.3626 179.999 65.2524 179.999 66.3656C179.999 67.5753 180.047 68.5395 180.139 69.2583C180.231 69.9771 180.388 70.5381 180.611 70.9326C180.834 71.3271 181.131 71.59 181.507 71.7172C181.883 71.8443 182.35 71.91 182.91 71.91Z" fill="white" style="fill:white;fill-opacity:1;"/>
<path d="M196.467 66.5407L191.271 57.582H196.362L199.347 63.0212L202.507 57.582H207L201.803 66.2295L207 75.1531H201.908L198.888 69.7139L195.763 75.1531H191.271L196.467 66.5407Z" fill="white" style="fill:white;fill-opacity:1;"/>
</svg>
