<svg width="29" height="29" viewBox="0 0 29 29" fill="none" xmlns="http://www.w3.org/2000/svg">
<path d="M28.9634 14.0142C28.9634 21.7545 22.4797 28.0291 14.4813 28.0291C6.48368 28.0291 0 21.751 0 14.0142C0 6.27454 6.48732 0 14.4813 0C22.4797 0 28.9634 6.27454 28.9634 14.0142Z" fill="#121214" style="fill:#121214;fill:color(display-p3 0.0706 0.0706 0.0784);fill-opacity:1;"/>
<path d="M19.029 11.0356C18.4403 10.9159 17.9071 10.6205 17.5073 10.1925C17.1074 9.76447 16.8619 9.22625 16.8063 8.65626V8.40908H14.7752V16.0723C14.774 16.4116 14.6609 16.742 14.452 17.017C14.2431 17.292 13.9487 17.4979 13.6104 17.6057C13.272 17.7135 12.9066 17.7178 12.5656 17.618C12.2245 17.5182 11.9249 17.3193 11.7088 17.0493C11.4895 16.7748 11.3678 16.4409 11.3614 16.0962C11.355 15.7514 11.4643 15.4137 11.6735 15.132C11.8826 14.8503 12.1806 14.6393 12.5244 14.5295C12.8682 14.4197 13.2399 14.4169 13.5855 14.5214V12.5596C12.8148 12.4584 12.0301 12.5886 11.3412 12.9322C10.6522 13.2758 10.0934 13.8155 9.743 14.4758C9.39258 15.1362 9.26804 15.8842 9.38678 16.6151C9.50553 17.3461 9.86164 18.0235 10.4053 18.5526C10.9237 19.0569 11.5885 19.4029 12.3147 19.5464C13.041 19.69 13.7957 19.6245 14.4826 19.3584C15.1695 19.0923 15.7574 18.6376 16.1713 18.0524C16.5852 17.4673 16.8063 16.7781 16.8063 16.0729V12.1572C17.6272 12.7151 18.6114 13.0142 19.6204 13.0125V11.0939C19.4217 11.0941 19.2235 11.0746 19.029 11.0356Z" fill="white" style="fill:white;fill-opacity:1;"/>
</svg>
