<svg width="29" height="28" viewBox="0 0 29 28" fill="none" xmlns="http://www.w3.org/2000/svg">
<path d="M29 13.9996C29 21.732 22.5081 28 14.4996 28C6.49188 28 0 21.7285 0 13.9996C0 6.26803 6.49553 0 14.4996 0C22.5081 0 29 6.26803 29 13.9996Z" fill="#121214" style="fill:#121214;fill:color(display-p3 0.0706 0.0706 0.0784);fill-opacity:1;"/>
<path d="M20.7529 8.0678H8.25152C7.65857 8.0678 7.0899 8.29518 6.67055 8.69994C6.2512 9.1047 6.01549 9.6537 6.0153 10.2262V17.7739C6.0153 18.0574 6.07314 18.3381 6.18553 18.6001C6.29792 18.862 6.46267 19.0999 6.67033 19.3004C6.87799 19.5008 7.12451 19.6598 7.39582 19.7682C7.66713 19.8766 7.95789 19.9324 8.25152 19.9323H20.7529C21.3458 19.9323 21.9144 19.7049 22.3336 19.3001C22.7528 18.8953 22.9883 18.3463 22.9883 17.7739V10.2262C22.9882 9.65382 22.7526 9.10493 22.3334 8.70019C21.9142 8.29545 21.3457 8.06799 20.7529 8.0678ZM16.5111 14.5205L13.0356 16.1976C12.9436 16.2427 12.8412 16.2642 12.7381 16.2602C12.635 16.2561 12.5347 16.2266 12.4468 16.1744C12.3589 16.1222 12.2864 16.0491 12.2361 15.9621C12.1859 15.8751 12.1596 15.7771 12.1598 15.6775V12.3233C12.1595 12.2236 12.1857 12.1255 12.2359 12.0384C12.2861 11.9514 12.3586 11.8782 12.4465 11.8259C12.5344 11.7736 12.6348 11.744 12.7379 11.74C12.8411 11.7359 12.9435 11.7574 13.0356 11.8025L16.5111 13.4797C16.6109 13.5284 16.6948 13.6029 16.7532 13.695C16.8117 13.7871 16.8424 13.8931 16.8421 14.0011C16.8417 14.1092 16.8102 14.2149 16.7511 14.3067C16.692 14.3984 16.6076 14.4724 16.5074 14.5205H16.5111Z" fill="white" style="fill:white;fill-opacity:1;"/>
</svg>
