<svg width="33" height="37" viewBox="0 0 33 37" fill="none" xmlns="http://www.w3.org/2000/svg">
<path d="M32.8618 32.9904C32.8659 32.8864 32.8683 32.7836 32.8683 32.6846V32.6837C32.8598 28.8078 29.9638 28.1336 26.6261 27.3574C26.1538 27.2464 25.6771 27.1379 25.2032 27.0149C25.0163 26.9656 24.81 26.9163 24.5928 26.8636C23.9061 26.6988 23.1432 26.5146 22.4739 26.2655C21.6653 25.9641 20.9948 25.5691 20.7663 24.9951C20.6286 24.6531 20.5527 23.9431 20.6674 23.3906C20.673 23.3626 20.6868 23.333 20.6956 23.3047C20.476 23.3754 20.2484 23.4235 20.0102 23.4235H18.3902C17.123 23.4235 16.092 22.3735 16.092 21.083C16.092 19.7929 17.123 18.7438 18.3902 18.7438H20.0102C20.541 18.7438 21.046 18.9296 21.4485 19.2597C21.8768 19.2022 22.2886 19.113 22.6898 19.0081C22.6979 18.9646 22.706 18.9197 22.7141 18.8766C22.7508 18.669 22.7859 18.4679 22.8388 18.2817C23.3676 18.0449 23.9295 17.168 24.2194 16.0362C24.5298 14.8312 24.4321 13.7237 24.0248 13.3052C24.2376 11.158 23.781 8.85451 22.6862 7.44604C21.5474 5.98413 19.3917 4.65707 17.2692 4.50824C16.9918 4.48892 16.7173 4.48193 16.4453 4.48563C16.1732 4.48193 15.8987 4.48892 15.6213 4.50866C13.4992 4.65707 11.3431 5.98413 10.2043 7.44604C9.10952 8.85451 8.65336 11.158 8.8661 13.3064C8.45797 13.7241 8.36149 14.8312 8.67071 16.037C8.96056 17.1688 9.52329 18.0449 10.0517 18.2825C10.105 18.4692 10.1401 18.6698 10.1769 18.877C10.2152 19.0973 10.2548 19.3263 10.3181 19.5364C10.5745 20.4059 10.9257 21.1928 11.4549 22.0911C11.5381 22.2308 11.6422 22.3838 11.7476 22.533C11.9757 22.8582 12.1711 23.141 12.2235 23.3926C12.3378 23.9448 12.2615 24.6543 12.1246 24.9964C11.8949 25.5703 11.2244 25.9658 10.4162 26.2675C9.74653 26.5175 8.98478 26.7013 8.2969 26.8661C8.08013 26.9187 7.87384 26.9668 7.68694 27.0162C7.21382 27.1391 6.73667 27.2484 6.26436 27.3599C2.92509 28.1348 0.0290652 28.8074 0.0217989 32.6846C0.0217989 32.7828 0.0250282 32.8852 0.0282577 32.9888C0.0104956 33.0611 0 33.1327 0 33.2059C0 35.3017 7.36238 37 16.4444 37C25.5265 37 32.8889 35.3017 32.8889 33.2059C32.8889 33.1339 32.8796 33.062 32.8618 32.9904Z" fill="black" style="fill:black;fill-opacity:1;"/>
<path d="M26.8789 11.9888C26.2083 12.3292 25.7469 13.0314 25.7469 13.8442V17.989C25.7469 18.262 25.7998 18.5189 25.8922 18.7578C24.7054 19.6236 22.9785 20.2402 21.0335 20.4092C20.8151 20.0692 20.4393 19.8419 20.0098 19.8419H18.3898C17.7148 19.8419 17.1699 20.3977 17.1699 21.0834C17.1699 21.7696 17.7152 22.3262 18.3898 22.3262H20.0098C20.4817 22.3262 20.8838 22.0512 21.0868 21.6549C23.3442 21.4744 25.3085 20.7718 26.6867 19.7346C27.0028 19.9418 27.3766 20.0643 27.7819 20.0643H27.8836C29.0083 20.0643 29.919 19.1356 29.919 17.9894V13.8442C29.919 13.0187 29.4443 12.3078 28.7588 11.9761C28.4601 5.32225 23.0511 0 16.4444 0C9.83776 0 4.42881 5.32225 4.1321 11.9761C3.44584 12.3078 2.9699 13.0187 2.9699 13.8442V17.989C2.9699 19.1356 3.88142 20.0639 5.00527 20.0639H5.1074C6.23126 20.0639 7.14277 19.1352 7.14277 17.989V13.8442C7.14277 13.0314 6.68177 12.3292 6.01084 11.9888C6.30069 6.38456 10.8692 1.91413 16.4444 1.91413C22.0197 1.91413 26.5886 6.38456 26.8789 11.9888Z" fill="black" style="fill:black;fill-opacity:1;"/>
</svg>
