<svg width="60" height="35" viewBox="0 0 60 35" fill="none" xmlns="http://www.w3.org/2000/svg">
<path fill-rule="evenodd" clip-rule="evenodd" d="M42.7734 0.34834C47.9755 1.5382 49.9654 4.53654 52.4602 8.66337H42.7734V0.34834ZM12.3724 9.0099C13.391 9.0099 14.1302 9.49451 14.1302 10.6271C14.1302 11.5823 13.3461 12.357 12.3775 12.3597H1.75781C0.786896 12.3597 0 13.1358 0 14.0924C0 15.0494 0.786896 15.8251 1.75781 15.8251H17.5781C18.5582 15.8251 19.3428 16.6003 19.3428 17.5578C19.3428 18.5148 18.5559 19.2904 17.585 19.2904H1.75781C0.786896 19.2904 0 20.0661 0 21.0231C0 21.9801 0.786896 22.7558 1.75781 22.7558H5.625V27.9538C5.625 28.9108 6.4119 29.6865 7.38281 29.6865H10.9163C11.5462 32.7448 14.2877 35 17.5195 35C20.7513 35 23.4929 32.7448 24.1228 29.6865H41.971C42.6009 32.7448 45.3424 35 48.5742 35C51.806 35 54.5476 32.7448 55.1775 29.6865H58.2422C59.2131 29.6865 60 28.9108 60 27.9538V17.5578C60 12.4739 54.5599 12.1364 54.5549 12.1287H41.0156C40.0447 12.1287 39.2578 11.3531 39.2578 10.396V0H7.38281C6.4119 0 5.625 0.775642 5.625 1.73267V5.54455H3.51562C2.54471 5.54455 1.75781 6.3202 1.75781 7.27723C1.75781 8.23426 2.54471 9.0099 3.51562 9.0099H12.3724ZM50.853 26.1119C52.1114 27.3523 52.1114 29.3643 50.853 30.6047C48.8287 32.6 45.3516 31.1804 45.3516 28.3581C45.3516 25.5362 48.8287 24.1166 50.853 26.1119ZM19.7983 26.1119C21.0567 27.3523 21.0567 29.3643 19.7983 30.6047C17.774 32.6 14.2969 31.1804 14.2969 28.3581C14.2969 25.5362 17.774 24.1166 19.7983 26.1119Z" fill="black" style="fill:black;fill-opacity:1;"/>
</svg>
