<svg width="52" height="35" viewBox="0 0 52 35" fill="none" xmlns="http://www.w3.org/2000/svg">
<path d="M51.7708 8.25284V5.56818C51.7708 2.49295 49.2357 0 46.1084 0H5.66244C2.53515 0 0 2.49295 0 5.56818V8.25284C0 8.52737 0.226396 8.75 0.505575 8.75H51.2653C51.5444 8.75 51.7708 8.52737 51.7708 8.25284Z" fill="black" style="fill:black;fill-opacity:1;"/>
<path d="M0 12.429V29.4318C0 32.507 2.53515 35 5.66244 35H46.1084C49.2357 35 51.7708 32.507 51.7708 29.4318V12.429C51.7708 12.1544 51.5444 11.9318 51.2653 11.9318H0.505575C0.226396 11.9318 0 12.1544 0 12.429ZM12.9427 25.4545C12.9427 26.3331 12.2183 27.0455 11.3249 27.0455H9.70703C8.81358 27.0455 8.08919 26.3331 8.08919 25.4545V23.8636C8.08919 22.9851 8.81358 22.2727 9.70703 22.2727H11.3249C12.2183 22.2727 12.9427 22.9851 12.9427 23.8636V25.4545Z" fill="black" style="fill:black;fill-opacity:1;"/>
</svg>
