<svg width="235" height="63" viewBox="0 0 235 63" fill="none" xmlns="http://www.w3.org/2000/svg">
<path d="M115.394 10.992C115.358 10.992 115.323 10.992 115.276 11.0038L114.921 11.0865C114.543 11.2401 114.224 11.5354 114.059 11.9016C113.929 12.4214 113.882 12.953 113.929 13.4846V34.0161C113.87 34.4886 113.87 34.9612 113.929 35.4337C114.142 36.1543 114.851 36.615 115.595 36.5205C116.174 36.4497 116.658 36.0598 116.871 35.5164C116.941 35.0202 116.941 34.5123 116.871 34.0161L116.989 12.4214C116.942 11.5827 116.233 10.9447 115.394 10.992Z" fill="#51B6BF" style="fill:#51B6BF;fill:color(display-p3 0.3176 0.7137 0.7490);fill-opacity:1;"/>
<path d="M89.9726 26.5621C88.933 23.2072 85.7552 20.9862 82.2585 21.1634H81.6087C81.1834 21.2343 80.7582 21.3288 80.3329 21.447C78.7145 21.9313 77.3087 22.9236 76.3045 24.2704C75.5839 25.3336 75.0996 26.5267 74.887 27.7907C74.8397 28.3105 74.8397 28.8303 74.887 29.3501V49.0665C74.887 50.5904 74.7216 51.7363 75.9148 52.1143C76.2337 52.2088 76.5763 52.2088 76.907 52.1143C78.1356 51.6063 77.8403 50.0233 77.8403 48.3577V35.0795C78.6909 35.7174 79.6478 36.19 80.6637 36.4971C82.1758 36.8633 83.747 36.7925 85.2118 36.2727C87.5154 35.4576 89.2874 33.5674 89.9608 31.2166C90.3034 30.177 90.4097 29.0784 90.2679 27.9915C90.2089 27.5072 90.1026 27.0347 89.9726 26.5621ZM87.2673 29.799C87.1846 30.1652 87.0783 30.5314 86.9247 30.874C86.2041 32.4806 84.6566 33.5674 82.8965 33.6973C82.1877 33.78 81.4789 33.6619 80.8291 33.3548C79.447 32.8232 78.3956 31.6655 78.0057 30.2361C77.923 29.9171 77.8758 29.5863 77.8522 29.2556C77.7813 28.6177 77.8639 27.9797 78.0884 27.3773C78.5727 26.066 79.6123 25.0382 80.9118 24.5539L81.8332 24.294H82.294C84.3022 24.1168 86.1923 25.2627 86.972 27.1174C87.3264 27.9797 87.4209 28.9012 87.2673 29.799Z" fill="#51B6BF" style="fill:#51B6BF;fill:color(display-p3 0.3176 0.7137 0.7490);fill-opacity:1;"/>
<path d="M101.396 21.1162V21.1398L100.557 21.2107C100.025 21.3052 99.5055 21.4351 98.9975 21.6005C96.7766 22.3802 95.0284 24.1168 94.2132 26.314C94.0597 26.7984 93.9415 27.2945 93.8588 27.8025C93.6816 28.972 93.8116 30.1534 94.2132 31.2638C94.8866 33.3666 96.4341 35.0913 98.4542 35.9773C99.033 36.2136 99.6237 36.3908 100.238 36.5089L100.959 36.5798H101.762C102.459 36.5207 103.144 36.4026 103.829 36.2254C106.038 35.5284 107.822 33.8864 108.685 31.7364C109.393 29.8935 109.393 27.8498 108.685 25.9951C107.527 22.9945 104.609 21.0571 101.396 21.1162ZM106.015 30.7913C105.471 32.0671 104.384 33.0358 103.061 33.4374C102.66 33.5438 102.258 33.6147 101.845 33.6501C101.136 33.6974 100.439 33.5556 99.8009 33.2603C97.4382 32.3388 96.2333 29.7281 97.0485 27.33C97.5446 25.9596 98.6433 24.8965 100.014 24.4239L100.935 24.1995H101.396C103.357 24.0932 105.164 25.2272 105.932 27.0228C106.44 28.2396 106.44 29.5982 105.944 30.8149L106.015 30.7913Z" fill="#51B6BF" style="fill:#51B6BF;fill:color(display-p3 0.3176 0.7137 0.7490);fill-opacity:1;"/>
<path d="M212.123 21.1515L212.229 21.0924H211.709C211.32 21.1515 210.942 21.2223 210.564 21.3287C209.205 21.7421 207.988 22.5454 207.079 23.6441C206.405 24.4828 205.886 25.4397 205.567 26.4674C204.669 29.5271 205.708 32.823 208.189 34.8195C209.973 36.1898 212.276 36.6978 214.474 36.2371C215.513 35.9772 216.47 35.4928 217.297 34.8195C217.97 34.4296 218.479 33.7917 218.715 33.0475C218.75 32.2678 218.136 31.6063 217.356 31.5826C217.203 31.5708 217.049 31.5944 216.907 31.6417C216.47 31.8307 216.269 32.2324 215.927 32.5041C215.431 32.9293 214.852 33.2601 214.226 33.4609C212.17 34.1107 209.937 33.2837 208.815 31.4409C208.473 30.9683 208.272 30.4131 208.213 29.8342H216.435C217.533 29.8342 218.987 30.0233 219.483 29.3853C219.979 28.7474 219.553 26.562 219.246 25.7114C218.148 22.7817 215.253 20.927 212.123 21.1515ZM215.927 27.3417L216.045 27.2944H208.26C208.166 26.9046 208.614 26.1367 208.768 25.8768C209.323 25.0026 210.174 24.3529 211.166 24.0693L211.91 23.904H212.288C213.824 23.774 215.324 24.4356 216.269 25.6523C216.671 26.1249 216.896 26.7037 216.931 27.318C216.6 27.3771 216.258 27.3771 215.927 27.3417Z" fill="#51B6BF" style="fill:#51B6BF;fill:color(display-p3 0.3176 0.7137 0.7490);fill-opacity:1;"/>
<path d="M233.576 21.317C233.576 21.317 233.576 21.317 233.564 21.3052L233.694 21.2461C233.139 20.9035 232.489 20.7618 231.839 20.8563H231.201C230.753 20.9272 230.304 21.0335 229.855 21.1516C229.134 21.3879 228.449 21.7423 227.835 22.1794L227.209 22.6637C227.374 21.8486 226.854 21.0571 226.051 20.8917C225.366 20.75 224.68 21.0926 224.385 21.7305C224.125 22.8646 224.054 24.0459 224.173 25.2036V33.2957C224.173 34.9968 223.96 36.3081 225.425 36.5916C226.193 36.7216 226.937 36.249 227.126 35.493C227.185 34.9732 227.185 34.4416 227.126 33.91C227.126 32.7995 227.126 31.6773 227.126 30.5668C227.008 29.3855 227.114 28.2042 227.433 27.0583C227.988 25.558 229.24 24.4357 230.776 24.0341C231.698 23.7742 232.985 24.1049 233.6 23.5143C234.202 22.9 234.19 21.9195 233.576 21.317Z" fill="#51B6BF" style="fill:#51B6BF;fill:color(display-p3 0.3176 0.7137 0.7490);fill-opacity:1;"/>
<path d="M202.199 33.9572L202.282 33.8982L196.801 27.2945L201.29 23.4552C201.715 22.8409 201.644 22.014 201.136 21.4588C200.037 20.5491 199.317 21.3052 198.561 21.8958L195.489 24.4475L194.438 25.3217C194.32 25.4162 194.237 25.558 194.072 25.617C193.906 25.6761 194.072 24.9909 194.072 24.7783V14.3826C194.072 12.5988 194.308 11.0512 192.465 11.0749L192.028 11.193C191.685 11.3466 191.402 11.6183 191.248 11.9608C191.13 12.457 191.083 12.965 191.13 13.473V34.0754C191.071 34.5479 191.071 35.0204 191.13 35.493C191.307 36.2372 192.063 36.7097 192.808 36.5443C193.327 36.4498 193.764 36.0836 193.953 35.5875C194.06 35.0322 194.095 34.4652 194.036 33.91V30.5196C194.036 29.988 194.036 29.4564 194.036 28.9248L199.352 35.2567C199.872 35.9182 200.77 37.3358 202.081 36.438C202.624 36.06 202.861 35.363 202.66 34.7251C202.542 34.4534 202.388 34.1935 202.199 33.9572Z" fill="#51B6BF" style="fill:#51B6BF;fill:color(display-p3 0.3176 0.7137 0.7490);fill-opacity:1;"/>
<path d="M185.956 27.4948C185.306 23.6436 181.881 20.8912 177.982 21.092L177.238 21.1629C176.718 21.2456 176.21 21.3755 175.714 21.5409C173.588 22.3088 171.91 23.9626 171.095 26.0654C170.493 27.7783 170.469 29.6448 171.012 31.3814C171.816 33.6495 173.611 35.4215 175.891 36.1894C177.262 36.6383 178.726 36.7091 180.132 36.3902C181.231 36.0949 182.27 35.5869 183.168 34.8899C183.074 35.705 183.653 36.4375 184.468 36.532C185.023 36.6029 185.578 36.343 185.885 35.8704C186.098 35.327 186.181 34.7363 186.11 34.1457V30.8734C186.133 29.7629 186.051 28.6525 185.873 27.5539L185.956 27.4948ZM182.696 30.7789C182.141 32.102 181.018 33.1179 179.648 33.5196C179.305 33.6023 178.951 33.6731 178.585 33.7086C177.864 33.7795 177.143 33.6377 176.494 33.3188C174.037 32.2556 172.914 29.3967 173.978 26.9395C174.509 25.7228 175.513 24.7659 176.765 24.317L177.687 24.0926H178.124C180.132 23.9981 181.975 25.203 182.684 27.0695C183.133 28.2981 183.097 29.6448 182.589 30.838L182.696 30.7789Z" fill="#51B6BF" style="fill:#51B6BF;fill:color(display-p3 0.3176 0.7137 0.7490);fill-opacity:1;"/>
<path d="M166.274 25.8177C165.613 22.7816 162.836 20.6907 159.729 20.8915H159.269L158.217 21.1042C157.001 21.4704 155.949 22.2264 155.193 23.2541C155.016 23.455 154.862 23.6912 154.768 23.9511C154.591 23.6912 154.437 23.4195 154.307 23.1478C153.894 22.569 153.362 22.0847 152.736 21.7303C152.299 21.4704 151.815 21.2813 151.318 21.1632C149.594 20.7497 147.774 21.1986 146.428 22.3682C146.085 22.6989 145.766 23.0534 145.471 23.4314C145.471 23.2306 145.471 23.0415 145.471 22.8289C145.506 22.4154 145.4 22.0138 145.176 21.6712C144.632 21.0333 143.663 20.9506 143.025 21.5058C142.813 21.6948 142.647 21.9311 142.565 22.2028C142.517 22.569 142.517 22.9352 142.565 23.2896V34.7367C142.517 35.0556 142.517 35.3746 142.565 35.6818C142.777 36.1661 143.215 36.5087 143.734 36.6032C144.018 36.6386 144.313 36.6032 144.585 36.4851C145.034 36.3197 145.365 35.9535 145.506 35.4927C145.554 35.1265 145.554 34.7485 145.506 34.3823V28.7355C145.447 28.1567 145.447 27.566 145.506 26.9872C145.707 25.9476 146.357 25.0616 147.278 24.5418C147.952 24.1401 148.731 23.963 149.511 24.0575C149.936 24.1284 150.35 24.2583 150.74 24.4355C151.696 24.8489 152.417 25.6641 152.701 26.6682C152.842 27.4006 152.878 28.1567 152.831 28.9009V32.882C152.831 34.4886 152.606 35.859 153.634 36.4851C153.906 36.6623 154.236 36.745 154.567 36.7095C155.867 36.4969 155.985 35.7054 155.985 34.2051V28.6647C155.938 28.0031 155.973 27.3534 156.079 26.7036C156.327 25.7231 156.989 24.8962 157.887 24.4237C158.536 24.0339 159.304 23.8685 160.06 23.9748C161.572 24.1047 162.836 25.1679 163.226 26.6328C163.344 27.3298 163.368 28.0386 163.321 28.7355V34.524C163.274 34.8666 163.274 35.2211 163.321 35.5755C163.486 35.9889 163.817 36.3197 164.242 36.4614C164.608 36.5914 164.998 36.5914 165.353 36.4614C166.451 36.0244 166.31 35.0438 166.31 33.5317L166.487 27.2589C166.463 26.7745 166.392 26.2902 166.274 25.8177Z" fill="#51B6BF" style="fill:#51B6BF;fill:color(display-p3 0.3176 0.7137 0.7490);fill-opacity:1;"/>
<path d="M137.284 24.3764C137.355 23.5731 137.32 22.7698 137.19 21.9783L137.284 21.9428C137.013 21.2104 136.198 20.8442 135.465 21.1277C135.087 21.2695 134.792 21.5648 134.65 21.9428C134.52 22.6634 134.485 23.3959 134.555 24.1165V27.9322C134.603 28.5583 134.603 29.1962 134.555 29.8223C134.366 31.3226 133.516 32.6457 132.24 33.449C131.425 33.9688 130.468 34.2168 129.511 34.146C127.054 33.9688 125.117 31.9723 124.998 29.5152C124.998 27.6841 124.998 25.8294 124.998 23.9865C125.057 23.4195 125.057 22.8525 124.998 22.2854C124.868 21.5648 124.195 21.0686 123.475 21.1395L123.144 21.2104C122.766 21.3404 122.459 21.6239 122.293 21.9901C122.128 22.8879 122.081 23.8093 122.175 24.719V28.2275C122.104 29.3852 122.199 30.5547 122.459 31.6888C123.179 34.146 125.117 36.0597 127.574 36.7567C128.814 37.1229 130.125 37.182 131.389 36.9221C132.157 36.7331 132.89 36.4378 133.575 36.0479C133.858 35.8353 134.142 35.6226 134.437 35.4218L134.532 35.3273C134.555 35.5281 134.555 35.7289 134.532 35.9179C134.449 36.7094 134.284 37.4891 134.024 38.2334C133.079 40.7851 130.988 42.7342 128.377 43.4903C127.751 43.6557 127.101 43.7738 126.452 43.8447C125.92 43.8211 125.376 43.8211 124.845 43.8447C124.041 44.0573 123.557 44.8843 123.77 45.6876C123.794 45.7584 123.817 45.8293 123.841 45.9002C124.077 46.4554 124.55 46.6444 125.258 46.7744H126.026C126.369 46.8334 126.711 46.8334 127.054 46.7744C127.763 46.7035 128.46 46.5736 129.145 46.4082C130.444 46.0301 131.661 45.4277 132.76 44.6362C135.052 42.9941 136.646 40.5606 137.237 37.7963C137.379 36.6267 137.391 35.4336 137.284 34.2641V24.3764Z" fill="#51B6BF" style="fill:#51B6BF;fill:color(display-p3 0.3176 0.7137 0.7490);fill-opacity:1;"/>
<path d="M26.2279 23.1718C26.7949 22.7583 27.4093 22.4157 28.059 22.1558C32.6071 20.2302 37.8876 21.766 40.6874 25.8415C40.6874 25.8415 40.8883 26.2905 41.101 26.2314C41.3136 26.1723 41.2426 26.1369 41.3017 25.9479C42.8374 22.8292 45.5782 20.4547 48.8859 19.3797C52.4771 18.3283 56.34 18.7536 59.6241 20.5492C60.2148 20.9154 60.7701 21.3171 61.3017 21.7542L61.597 22.0377C61.597 22.0377 61.7387 22.2267 61.8332 22.1085C61.9277 21.9668 58.8917 12.2799 50.7996 6.64493C47.8463 4.36496 44.4913 2.66385 40.9119 1.62428L40.5338 1.54158L39.8605 1.34077C36.3992 0.442959 32.7962 0.171261 29.2404 0.537474L27.8227 0.726491C17.8522 2.14409 9.18132 8.27517 4.53869 17.206C4.31424 17.6313 4.08986 18.0684 3.87722 18.5173C3.75909 18.7536 3.66455 18.978 3.54642 19.2143L3.32189 19.7695L3.22743 20.0294C1.62083 23.6561 0.852932 27.6017 0.982878 31.5592V31.6537C0.982878 35.9183 1.85713 40.1475 3.55824 44.0577L3.71182 44.4829C4.57419 46.5739 5.73179 48.5231 7.14939 50.2951C9.67743 53.6619 12.8434 56.4971 16.4701 58.6353C17.1553 59.0369 17.8641 59.4268 18.5847 59.7812C19.5062 60.0647 21.1836 60.2065 21.7743 57.7847V32.3507C21.7743 32.3507 21.4199 26.066 26.2279 23.1718Z" fill="#51B6BF" style="fill:#51B6BF;fill:color(display-p3 0.3176 0.7137 0.7490);fill-opacity:1;"/>
<path d="M54.7569 21.3991C51.7327 20.9384 48.6495 21.7771 46.275 23.7263C44.1368 25.3684 42.8136 27.8491 42.6128 30.5426C42.5773 31.0151 42.5773 31.4876 42.6128 31.9602C42.4828 34.1929 41.7149 36.3547 40.3919 38.1621C38.7971 40.1231 36.5644 41.4699 34.0954 41.966C33.4102 42.096 32.7251 42.1314 32.0281 42.0842C29.2756 42.0605 26.6412 40.9265 24.7392 38.9418C24.6093 38.8001 24.5503 38.9418 24.5503 38.9418L24.633 57.0753C24.5503 58.5755 23.9832 60.0049 23.0264 61.1626C22.861 61.2808 22.8255 61.3753 22.8728 61.4344C22.92 61.4934 23.2626 61.6234 23.2626 61.6234C26.1096 62.4503 29.063 62.8638 32.0281 62.852H32.8668C33.4575 62.852 34.0246 62.852 34.5916 62.7574C36.5054 62.6039 38.3954 62.2849 40.2383 61.8006L41.9158 61.3517L42.8018 61.0445H42.8844C43.4869 60.8319 43.9595 60.6311 44.3021 60.5129L44.5738 60.383H44.6564C52.5832 56.6618 58.6908 49.9046 61.6087 41.6471C62.8963 38.0086 63.4515 34.2047 63.2389 30.4126C62.7191 25.8645 59.2696 22.1906 54.7569 21.3991Z" fill="#51B6BF" style="fill:#51B6BF;fill:color(display-p3 0.3176 0.7137 0.7490);fill-opacity:1;"/>
</svg>
