<svg width="234" height="63" viewBox="0 0 234 63" fill="none" xmlns="http://www.w3.org/2000/svg">
<path d="M114.426 10.6124C114.39 10.6124 114.355 10.6125 114.308 10.6243L113.953 10.707C113.575 10.8605 113.256 11.1559 113.091 11.5221C112.961 12.0419 112.914 12.5734 112.961 13.105V33.6366C112.902 34.1091 112.902 34.5816 112.961 35.0542C113.174 35.7748 113.883 36.2355 114.627 36.141C115.206 36.0701 115.69 35.6803 115.903 35.1369C115.973 34.6407 115.973 34.1327 115.903 33.6366L116.021 12.0419C115.974 11.2031 115.265 10.5652 114.426 10.6124Z" fill="#AFAFAF" style="fill:#AFAFAF;fill:color(display-p3 0.6863 0.6863 0.6863);fill-opacity:1;"/>
<path d="M100.427 20.7367V20.7603L99.5885 20.8312C99.0569 20.9257 98.537 21.0556 98.029 21.221C95.8081 22.0007 94.0599 23.7373 93.2447 25.9345C93.0912 26.4189 92.973 26.915 92.8903 27.423C92.7131 28.5925 92.8431 29.7738 93.2447 30.8843C93.9181 32.987 95.4656 34.7118 97.4857 35.5978C98.0645 35.8341 98.6552 36.0112 99.2695 36.1294L99.9901 36.2002H100.793C101.49 36.1412 102.176 36.0231 102.861 35.8459C105.07 35.1489 106.854 33.5068 107.716 31.3568C108.425 29.5139 108.425 27.4703 107.716 25.6156C106.558 22.615 103.64 20.6776 100.427 20.7367ZM104.975 30.4354H105.034C104.491 31.6994 103.404 32.6563 102.093 33.0579C101.691 33.1643 101.29 33.2351 100.876 33.2706C100.167 33.3178 99.4703 33.176 98.8324 32.8807C96.4697 31.9593 95.2648 29.3486 96.08 26.9505C96.5761 25.5801 97.6748 24.5169 99.0451 24.0444L99.9664 23.8199H100.427C102.388 23.7136 104.196 24.8477 104.964 26.6433C105.472 27.8601 105.471 29.2186 104.975 30.4354Z" fill="#AFAFAF" style="fill:#AFAFAF;fill:color(display-p3 0.6863 0.6863 0.6863);fill-opacity:1;"/>
<path d="M89.0037 26.1827C87.9642 22.8277 84.7864 20.6068 81.2896 20.784H80.6398C80.2146 20.8549 79.7893 20.9494 79.364 21.0675C77.7456 21.5518 76.3398 22.5442 75.3357 23.8909C74.6151 24.9541 74.1308 26.1473 73.9181 27.4113C73.8709 27.9311 73.8709 28.4508 73.9181 28.9706V48.687C73.9181 50.2109 73.7527 51.3568 74.9459 51.7349C75.2648 51.8294 75.6074 51.8294 75.9382 51.7349C77.1667 51.2269 76.8715 49.6439 76.8715 47.9782V34.7001C77.722 35.338 78.6789 35.8106 79.6949 36.1177C81.207 36.4839 82.7781 36.413 84.2429 35.8933C86.5465 35.0781 88.3186 33.188 88.9919 30.8371C89.3345 29.7976 89.4408 28.6989 89.2991 27.6121C89.24 27.1278 89.1337 26.6552 89.0037 26.1827ZM86.2984 29.4195C86.2158 29.7857 86.1094 30.152 85.9558 30.4946C85.2352 32.1012 83.6878 33.188 81.9276 33.318C81.2188 33.4007 80.51 33.2825 79.8603 32.9753C78.4781 32.4437 77.4267 31.286 77.0369 29.8566C76.9542 29.5376 76.9069 29.2069 76.8833 28.8762C76.8124 28.2382 76.895 27.6003 77.1195 26.9978C77.6038 25.6865 78.6434 24.6588 79.9429 24.1744L80.8644 23.9145H81.3251C83.3334 23.7373 85.2234 24.8833 86.0031 26.7379C86.3575 27.6003 86.452 28.5217 86.2984 29.4195Z" fill="#AFAFAF" style="fill:#AFAFAF;fill:color(display-p3 0.6863 0.6863 0.6863);fill-opacity:1;"/>
<path d="M211.153 20.7719L211.26 20.7129H210.74C210.35 20.772 209.972 20.8429 209.594 20.9492C208.235 21.3626 207.019 22.166 206.109 23.2646C205.436 24.1033 204.916 25.0602 204.597 26.0879C203.699 29.1476 204.739 32.4435 207.219 34.4399C209.003 35.8103 211.307 36.3183 213.504 35.8576C214.544 35.5977 215.5 35.1133 216.327 34.4399C217.001 34.0501 217.509 33.4122 217.745 32.6679C217.78 31.8883 217.166 31.2267 216.386 31.2031C216.233 31.1913 216.079 31.2149 215.938 31.2622C215.5 31.4512 215.3 31.8529 214.957 32.1246C214.461 32.5499 213.882 32.8806 213.256 33.0815C211.2 33.7312 208.968 32.9042 207.845 31.0614C207.503 30.5888 207.302 30.0336 207.243 29.4548H215.465C216.564 29.4548 218.017 29.6438 218.513 29.0059C219.009 28.3679 218.584 26.1825 218.277 25.3319C217.178 22.4022 214.284 20.5475 211.153 20.7719ZM214.957 26.9739L215.075 26.9267H207.29C207.196 26.5369 207.645 25.769 207.798 25.5091C208.353 24.6349 209.204 23.9852 210.196 23.7017L210.941 23.5363H211.319C212.854 23.4063 214.355 24.0679 215.3 25.2846C215.701 25.7572 215.926 26.3361 215.961 26.9503C215.63 27.0094 215.288 27.0094 214.957 26.9739Z" fill="#AFAFAF" style="fill:#AFAFAF;fill:color(display-p3 0.6863 0.6863 0.6863);fill-opacity:1;"/>
<path d="M232.606 20.9488C232.606 20.9488 232.606 20.9488 232.594 20.937L232.724 20.8779C232.169 20.5353 231.519 20.3935 230.87 20.4881H230.232C229.783 20.5589 229.334 20.6653 228.885 20.7834C228.164 21.0197 227.479 21.374 226.865 21.8111L226.239 22.2955C226.404 21.4804 225.884 20.6889 225.081 20.5235C224.396 20.3818 223.711 20.7243 223.415 21.3622C223.156 22.4963 223.085 23.6776 223.203 24.8353V32.9275C223.203 34.6286 222.99 35.9399 224.455 36.2234C225.223 36.3533 225.967 35.8808 226.156 35.1248C226.215 34.605 226.215 34.0733 226.156 33.5417C226.156 32.4313 226.156 31.3091 226.156 30.1986C226.038 29.0173 226.144 27.8359 226.463 26.69C227.019 25.1897 228.271 24.0675 229.806 23.6658C230.728 23.4059 232.016 23.7367 232.63 23.146C233.232 22.5318 233.22 21.5513 232.606 20.9488Z" fill="#AFAFAF" style="fill:#AFAFAF;fill:color(display-p3 0.6863 0.6863 0.6863);fill-opacity:1;"/>
<path d="M201.23 33.5777L201.313 33.5186L195.831 26.915L200.321 23.0757C200.746 22.4614 200.675 21.6344 200.167 21.0792C199.068 20.1696 198.348 20.9256 197.592 21.5163L194.52 24.068L193.469 24.9422C193.351 25.0367 193.268 25.1784 193.103 25.2375C192.937 25.2966 193.103 24.6114 193.103 24.3987V14.003C193.103 12.2192 193.339 10.6717 191.496 10.6953L191.059 10.8134C190.716 10.967 190.433 11.2387 190.279 11.5813C190.161 12.0775 190.114 12.5854 190.161 13.0934V33.6958C190.102 34.1683 190.102 34.6409 190.161 35.1134C190.338 35.8577 191.094 36.3302 191.839 36.1648C192.358 36.0703 192.795 35.7041 192.984 35.2079C193.091 34.6527 193.126 34.0857 193.067 33.5305V30.1401C193.067 29.6085 193.067 29.0768 193.067 28.5452L198.383 34.8771C198.903 35.5387 199.801 36.9563 201.112 36.0585C201.655 35.6804 201.892 34.9835 201.691 34.3456C201.573 34.0739 201.419 33.814 201.23 33.5777Z" fill="#AFAFAF" style="fill:#AFAFAF;fill:color(display-p3 0.6863 0.6863 0.6863);fill-opacity:1;"/>
<path d="M165.306 25.4381C164.644 22.4021 161.868 20.3111 158.761 20.512H158.301L157.249 20.7246C156.032 21.0908 154.981 21.8469 154.225 22.8746C154.048 23.0755 153.894 23.3118 153.8 23.5716C153.623 23.3118 153.469 23.04 153.339 22.7683C152.926 22.1894 152.394 21.7051 151.768 21.3507C151.331 21.0908 150.846 20.9018 150.35 20.7837C148.625 20.3702 146.806 20.8191 145.459 21.9886C145.117 22.3194 144.798 22.6738 144.503 23.0519C144.503 22.851 144.503 22.662 144.503 22.4494C144.538 22.0359 144.432 21.6342 144.207 21.2916C143.664 20.6537 142.695 20.5711 142.057 21.1263C141.845 21.3153 141.679 21.5515 141.596 21.8232C141.549 22.1894 141.549 22.5556 141.596 22.91V34.3571C141.549 34.6761 141.549 34.9951 141.596 35.3022C141.809 35.7866 142.246 36.1291 142.766 36.2236C143.05 36.2591 143.345 36.2237 143.617 36.1055C144.066 35.9402 144.396 35.5739 144.538 35.1132C144.585 34.747 144.585 34.369 144.538 34.0027V28.356C144.479 27.7772 144.479 27.1865 144.538 26.6076C144.739 25.568 145.389 24.6821 146.31 24.1623C146.983 23.7607 147.763 23.5834 148.543 23.6779C148.968 23.7488 149.381 23.8788 149.771 24.056C150.728 24.4694 151.449 25.2846 151.732 26.2887C151.874 27.0211 151.91 27.7771 151.862 28.5214V32.5025C151.862 34.1091 151.638 35.4794 152.666 36.1055C152.937 36.2827 153.268 36.3654 153.599 36.33C154.898 36.1174 155.017 35.3259 155.017 33.8256V28.2851C154.969 27.6236 155.005 26.9738 155.111 26.3241C155.359 25.3436 156.021 24.5167 156.918 24.0441C157.568 23.6543 158.336 23.4889 159.092 23.5952C160.604 23.7252 161.868 24.7884 162.258 26.2532C162.376 26.9502 162.4 27.659 162.353 28.356V34.1445C162.305 34.4871 162.305 34.8415 162.353 35.1959C162.518 35.6094 162.849 35.9401 163.274 36.0819C163.64 36.2118 164.03 36.2118 164.384 36.0819C165.483 35.6448 165.341 34.6643 165.341 33.1522L165.518 26.8794C165.495 26.395 165.424 25.9106 165.306 25.4381Z" fill="#AFAFAF" style="fill:#AFAFAF;fill:color(display-p3 0.6863 0.6863 0.6863);fill-opacity:1;"/>
<path d="M136.316 23.9968C136.387 23.1935 136.352 22.3902 136.222 21.5987L136.316 21.5633C136.045 20.8309 135.229 20.4647 134.497 20.7482C134.119 20.8899 133.824 21.1853 133.682 21.5633C133.552 22.2839 133.517 23.0163 133.587 23.7369V27.5527C133.635 28.1788 133.635 28.8167 133.587 29.4428C133.398 30.9431 132.548 32.2661 131.272 33.0695C130.457 33.5892 129.5 33.8373 128.543 33.7664C126.086 33.5892 124.148 31.5928 124.03 29.1356C124.03 27.3045 124.03 25.4499 124.03 23.607C124.089 23.0399 124.089 22.4729 124.03 21.9059C123.9 21.1853 123.227 20.6891 122.507 20.76L122.176 20.8309C121.798 20.9608 121.491 21.2443 121.325 21.6105C121.16 22.5083 121.113 23.4298 121.207 24.3394V27.848C121.136 29.0057 121.231 30.1752 121.491 31.3093C122.211 33.7664 124.149 35.6802 126.606 36.3772C127.846 36.7434 129.157 36.8025 130.421 36.5426C131.189 36.3536 131.922 36.0582 132.607 35.6684C132.89 35.4558 133.174 35.2431 133.469 35.0423L133.564 34.9477C133.587 35.1486 133.587 35.3494 133.564 35.5384C133.481 36.3299 133.316 37.1096 133.056 37.8538C132.111 40.4055 130.02 42.3547 127.409 43.1108C126.783 43.2761 126.133 43.3943 125.484 43.4651C124.952 43.4415 124.408 43.4415 123.877 43.4651C123.073 43.6778 122.589 44.5047 122.802 45.308C122.826 45.3789 122.849 45.4498 122.873 45.5206C123.109 46.0759 123.582 46.2649 124.29 46.3948H125.058C125.401 46.4539 125.743 46.4539 126.086 46.3948C126.795 46.3239 127.492 46.194 128.177 46.0286C129.476 45.6506 130.693 45.0481 131.792 44.2566C134.084 42.6146 135.678 40.1811 136.269 37.4167C136.411 36.2472 136.423 35.0541 136.316 33.8846V23.9968Z" fill="#AFAFAF" style="fill:#AFAFAF;fill:color(display-p3 0.6863 0.6863 0.6863);fill-opacity:1;"/>
<path d="M184.987 27.1154C184.337 23.2643 180.911 20.5117 177.013 20.7125L176.269 20.7834C175.749 20.8661 175.241 20.9961 174.745 21.1614C172.618 21.9293 170.941 23.5832 170.126 25.686C169.523 27.3989 169.5 29.2654 170.043 31.0019C170.846 33.2701 172.642 35.0421 174.922 35.81C176.292 36.2589 177.757 36.3297 179.163 36.0108C180.261 35.7154 181.301 35.2074 182.199 34.5105C182.104 35.3256 182.683 36.058 183.498 36.1525C184.054 36.2234 184.609 35.9635 184.916 35.491C185.129 34.9476 185.211 34.3569 185.14 33.7662V30.494C185.164 29.3835 185.081 28.2731 184.904 27.1744L184.987 27.1154ZM181.726 30.3994C181.171 31.7225 180.049 32.7385 178.678 33.1401C178.336 33.2228 177.982 33.2937 177.615 33.3291C176.895 33.4 176.174 33.2583 175.524 32.9393C173.067 31.8761 171.945 29.0173 173.008 26.5601C173.54 25.3434 174.544 24.3865 175.796 23.9376L176.718 23.7132H177.155C179.163 23.6186 181.006 24.8236 181.715 26.6901C182.163 27.9186 182.128 29.2654 181.62 30.4585L181.726 30.3994Z" fill="#AFAFAF" style="fill:#AFAFAF;fill:color(display-p3 0.6863 0.6863 0.6863);fill-opacity:1;"/>
<path d="M25.2592 22.7922C25.8262 22.3787 26.4405 22.0362 27.0903 21.7763C31.6384 19.8507 36.9189 21.3864 39.7186 25.462C39.7186 25.462 39.9196 25.911 40.1322 25.8519C40.3448 25.7928 40.2739 25.7573 40.3329 25.5683C41.8687 22.4496 44.6094 20.0751 47.9171 19.0001C51.5084 17.9487 55.3713 18.3741 58.6554 20.1697C59.246 20.5359 59.8013 20.9375 60.3329 21.3746L60.6283 21.6581C60.6283 21.6581 60.77 21.8471 60.8645 21.729C60.959 21.599 57.923 11.9004 49.8309 6.26541C46.8776 3.98545 43.5226 2.28433 39.9431 1.24476L39.565 1.16206L38.8918 0.961253C35.4305 0.063442 31.8274 -0.208255 28.2716 0.157957L26.8539 0.346938C16.8835 1.76453 8.21257 7.89565 3.56994 16.8265C3.34549 17.2518 3.12111 17.6889 2.90847 18.1378C2.79034 18.374 2.6958 18.5985 2.57767 18.8348L2.35314 19.39L2.25868 19.6499C0.652075 23.2766 -0.115818 27.2222 0.0141281 31.1796V31.2742C0.0141281 35.5388 0.888376 39.7679 2.58949 43.6781L2.74307 44.1034C3.60544 46.1943 4.76304 48.1436 6.18064 49.9156C8.70868 53.2824 11.8747 56.1176 15.5014 58.2558C16.1865 58.6574 16.8954 59.0472 17.616 59.4016C18.5374 59.6852 20.2148 59.8269 20.8055 57.4052V31.9712C20.8055 31.9712 20.4511 25.6865 25.2592 22.7922Z" fill="#AFAFAF" style="fill:#AFAFAF;fill:color(display-p3 0.6863 0.6863 0.6863);fill-opacity:1;"/>
<path d="M53.7879 21.0196C50.7637 20.5589 47.6805 21.3976 45.306 23.3468C43.1678 24.9889 41.8446 27.4696 41.6438 30.1631C41.6083 30.6356 41.6083 31.1081 41.6438 31.5807C41.5138 33.8134 40.746 35.9752 39.4229 37.7827C37.8281 39.7437 35.5954 41.0904 33.1264 41.5866C32.4413 41.7165 31.7561 41.7519 31.0591 41.7047C28.3066 41.6811 25.6722 40.5469 23.7702 38.5623C23.6403 38.4205 23.5813 38.5623 23.5813 38.5623L23.664 56.6958C23.5813 58.1961 23.0142 59.6255 22.0574 60.7832C21.892 60.9013 21.8565 60.9958 21.9038 61.0549C21.951 61.1139 22.2936 61.2439 22.2936 61.2439C25.1406 62.0708 28.094 62.4843 31.0591 62.4725H31.8978C32.4885 62.4725 33.0556 62.4725 33.6226 62.378C35.5364 62.2244 37.4264 61.9054 39.2693 61.4211L40.9468 60.9722L41.8328 60.665H41.9155C42.5179 60.4524 42.9906 60.2515 43.3331 60.1334L43.6048 60.0035H43.6875C51.6142 56.2823 57.7218 49.5251 60.6397 41.2676C61.9273 37.6291 62.4825 33.8252 62.2699 30.0331C61.7501 25.485 58.3006 21.8111 53.7879 21.0196Z" fill="#AFAFAF" style="fill:#AFAFAF;fill:color(display-p3 0.6863 0.6863 0.6863);fill-opacity:1;"/>
</svg>
